G04 #@! TF.GenerationSoftware,KiCad,Pcbnew,5.0.2+dfsg1-1+build2*
G04 #@! TF.CreationDate,2019-10-24T23:13:18-07:00*
G04 #@! TF.ProjectId,pcb_class,7063625f-636c-4617-9373-2e6b69636164,rev?*
G04 #@! TF.SameCoordinates,Original*
G04 #@! TF.FileFunction,Copper,L2,Bot*
G04 #@! TF.FilePolarity,Positive*
%FSLAX46Y46*%
G04 Gerber Fmt 4.6, Leading zero omitted, Abs format (unit mm)*
G04 Created by KiCad (PCBNEW 5.0.2+dfsg1-1+build2) date Thu 24 Oct 2019 11:13:18 PM PDT*
%MOMM*%
%LPD*%
G01*
G04 APERTURE LIST*
G04 #@! TA.AperFunction,ComponentPad*
%ADD10C,2.000000*%
G04 #@! TD*
G04 #@! TA.AperFunction,ComponentPad*
%ADD11R,1.600000X1.600000*%
G04 #@! TD*
G04 #@! TA.AperFunction,ComponentPad*
%ADD12C,1.600000*%
G04 #@! TD*
G04 #@! TA.AperFunction,ComponentPad*
%ADD13O,1.600000X1.600000*%
G04 #@! TD*
G04 #@! TA.AperFunction,ComponentPad*
%ADD14R,1.700000X1.700000*%
G04 #@! TD*
G04 #@! TA.AperFunction,ComponentPad*
%ADD15O,1.700000X1.700000*%
G04 #@! TD*
G04 #@! TA.AperFunction,ComponentPad*
%ADD16O,1.500000X1.050000*%
G04 #@! TD*
G04 #@! TA.AperFunction,ComponentPad*
%ADD17R,1.500000X1.050000*%
G04 #@! TD*
G04 #@! TA.AperFunction,ViaPad*
%ADD18C,0.800000*%
G04 #@! TD*
G04 #@! TA.AperFunction,Conductor*
%ADD19C,0.250000*%
G04 #@! TD*
G04 #@! TA.AperFunction,Conductor*
%ADD20C,0.254000*%
G04 #@! TD*
G04 APERTURE END LIST*
D10*
G04 #@! TO.P,C1,1*
G04 #@! TO.N,Net-(C1-Pad1)*
X165100000Y-115570000D03*
G04 #@! TO.P,C1,2*
G04 #@! TO.N,IN*
X165100000Y-123070000D03*
G04 #@! TD*
D11*
G04 #@! TO.P,C2,1*
G04 #@! TO.N,Net-(C1-Pad1)*
X157480000Y-120650000D03*
D12*
G04 #@! TO.P,C2,2*
G04 #@! TO.N,Net-(C2-Pad2)*
X157480000Y-122650000D03*
G04 #@! TD*
G04 #@! TO.P,C3,1*
G04 #@! TO.N,Net-(C3-Pad1)*
X161290000Y-111760000D03*
G04 #@! TO.P,C3,2*
G04 #@! TO.N,Net-(C3-Pad2)*
X166290000Y-111760000D03*
G04 #@! TD*
D11*
G04 #@! TO.P,D1,1*
G04 #@! TO.N,Net-(C1-Pad1)*
X157480000Y-107950000D03*
D13*
G04 #@! TO.P,D1,2*
G04 #@! TO.N,Net-(C3-Pad1)*
X165100000Y-107950000D03*
G04 #@! TD*
D14*
G04 #@! TO.P,J1,1*
G04 #@! TO.N,IN*
X185420000Y-123190000D03*
D15*
G04 #@! TO.P,J1,2*
G04 #@! TO.N,+9V*
X182880000Y-123190000D03*
G04 #@! TO.P,J1,3*
G04 #@! TO.N,GND*
X180340000Y-123190000D03*
G04 #@! TO.P,J1,4*
G04 #@! TO.N,OUT*
X177800000Y-123190000D03*
G04 #@! TD*
D16*
G04 #@! TO.P,Q1,2*
G04 #@! TO.N,Net-(C3-Pad1)*
X157480000Y-114300000D03*
G04 #@! TO.P,Q1,3*
G04 #@! TO.N,Net-(Q1-Pad3)*
X157480000Y-113030000D03*
D17*
G04 #@! TO.P,Q1,1*
G04 #@! TO.N,Net-(C1-Pad1)*
X157480000Y-115570000D03*
G04 #@! TD*
D12*
G04 #@! TO.P,R1,1*
G04 #@! TO.N,+9V*
X170180000Y-118110000D03*
D13*
G04 #@! TO.P,R1,2*
G04 #@! TO.N,Net-(C3-Pad1)*
X170180000Y-107950000D03*
G04 #@! TD*
D15*
G04 #@! TO.P,RV1,3*
G04 #@! TO.N,Net-(C2-Pad2)*
X187960000Y-115570000D03*
G04 #@! TO.P,RV1,2*
G04 #@! TO.N,IN*
X187960000Y-113030000D03*
D14*
G04 #@! TO.P,RV1,1*
X187960000Y-110490000D03*
G04 #@! TD*
G04 #@! TO.P,RV2,1*
G04 #@! TO.N,Net-(Q1-Pad3)*
X181610000Y-110490000D03*
D15*
G04 #@! TO.P,RV2,2*
G04 #@! TO.N,GND*
X181610000Y-113030000D03*
G04 #@! TO.P,RV2,3*
X181610000Y-115570000D03*
G04 #@! TD*
D14*
G04 #@! TO.P,RV3,1*
G04 #@! TO.N,Net-(C3-Pad2)*
X175260000Y-110490000D03*
D15*
G04 #@! TO.P,RV3,2*
G04 #@! TO.N,OUT*
X175260000Y-113030000D03*
G04 #@! TO.P,RV3,3*
G04 #@! TO.N,GND*
X175260000Y-115570000D03*
G04 #@! TD*
D18*
G04 #@! TO.N,IN*
X180340000Y-119380000D03*
G04 #@! TO.N,Net-(C2-Pad2)*
X179070000Y-116840000D03*
X184150000Y-116840000D03*
G04 #@! TD*
D19*
G04 #@! TO.N,IN*
X165220000Y-123190000D02*
X165100000Y-123070000D01*
X173990000Y-123190000D02*
X165220000Y-123190000D01*
X177800000Y-120650000D02*
X176530000Y-120650000D01*
X180340000Y-119380000D02*
X179070000Y-119380000D01*
X176530000Y-120650000D02*
X173990000Y-123190000D01*
X179070000Y-119380000D02*
X177800000Y-120650000D01*
G04 #@! TO.N,Net-(C2-Pad2)*
X179070000Y-116840000D02*
X179070000Y-116840000D01*
X186690000Y-116840000D02*
X187960000Y-115570000D01*
X184150000Y-116840000D02*
X186690000Y-116840000D01*
X177800000Y-118110000D02*
X179070000Y-116840000D01*
X157480000Y-122650000D02*
X158279999Y-121850001D01*
X158279999Y-121850001D02*
X162629999Y-121850001D01*
X162629999Y-121850001D02*
X163830000Y-120650000D01*
X172720000Y-120650000D02*
X175260000Y-118110000D01*
X163830000Y-120650000D02*
X172720000Y-120650000D01*
X175260000Y-118110000D02*
X177800000Y-118110000D01*
G04 #@! TD*
D20*
G04 #@! TO.N,GND*
G36*
X188413698Y-104912958D02*
X188838893Y-105081305D01*
X189208858Y-105350101D01*
X189500356Y-105702462D01*
X189695067Y-106116244D01*
X189787093Y-106598662D01*
X189790001Y-106691194D01*
X189790000Y-107880074D01*
X189790000Y-107880075D01*
X189790001Y-123145326D01*
X189727042Y-123643699D01*
X189558697Y-124068889D01*
X189289899Y-124438859D01*
X188937541Y-124730355D01*
X188523756Y-124925067D01*
X188041339Y-125017093D01*
X187948836Y-125020000D01*
X154984667Y-125020000D01*
X154486301Y-124957042D01*
X154061111Y-124788697D01*
X153691141Y-124519899D01*
X153399645Y-124167541D01*
X153204933Y-123753756D01*
X153112907Y-123271339D01*
X153110000Y-123178836D01*
X153110000Y-119850000D01*
X156032560Y-119850000D01*
X156032560Y-121450000D01*
X156081843Y-121697765D01*
X156222191Y-121907809D01*
X156231591Y-121914090D01*
X156045000Y-122364561D01*
X156045000Y-122935439D01*
X156263466Y-123462862D01*
X156667138Y-123866534D01*
X157194561Y-124085000D01*
X157765439Y-124085000D01*
X158292862Y-123866534D01*
X158696534Y-123462862D01*
X158915000Y-122935439D01*
X158915000Y-122744778D01*
X163465000Y-122744778D01*
X163465000Y-123395222D01*
X163713914Y-123996153D01*
X164173847Y-124456086D01*
X164774778Y-124705000D01*
X165425222Y-124705000D01*
X166026153Y-124456086D01*
X166486086Y-123996153D01*
X166505203Y-123950000D01*
X173915153Y-123950000D01*
X173990000Y-123964888D01*
X174064847Y-123950000D01*
X174064852Y-123950000D01*
X174286537Y-123905904D01*
X174537929Y-123737929D01*
X174580331Y-123674470D01*
X175064801Y-123190000D01*
X176285908Y-123190000D01*
X176401161Y-123769418D01*
X176729375Y-124260625D01*
X177220582Y-124588839D01*
X177653744Y-124675000D01*
X177946256Y-124675000D01*
X178379418Y-124588839D01*
X178870625Y-124260625D01*
X179083843Y-123941522D01*
X179144817Y-124071358D01*
X179573076Y-124461645D01*
X179983110Y-124631476D01*
X180213000Y-124510155D01*
X180213000Y-123317000D01*
X180193000Y-123317000D01*
X180193000Y-123063000D01*
X180213000Y-123063000D01*
X180213000Y-121869845D01*
X180467000Y-121869845D01*
X180467000Y-123063000D01*
X180487000Y-123063000D01*
X180487000Y-123317000D01*
X180467000Y-123317000D01*
X180467000Y-124510155D01*
X180696890Y-124631476D01*
X181106924Y-124461645D01*
X181535183Y-124071358D01*
X181596157Y-123941522D01*
X181809375Y-124260625D01*
X182300582Y-124588839D01*
X182733744Y-124675000D01*
X183026256Y-124675000D01*
X183459418Y-124588839D01*
X183950625Y-124260625D01*
X183962816Y-124242381D01*
X183971843Y-124287765D01*
X184112191Y-124497809D01*
X184322235Y-124638157D01*
X184570000Y-124687440D01*
X186270000Y-124687440D01*
X186517765Y-124638157D01*
X186727809Y-124497809D01*
X186868157Y-124287765D01*
X186917440Y-124040000D01*
X186917440Y-122340000D01*
X186868157Y-122092235D01*
X186727809Y-121882191D01*
X186517765Y-121741843D01*
X186270000Y-121692560D01*
X184570000Y-121692560D01*
X184322235Y-121741843D01*
X184112191Y-121882191D01*
X183971843Y-122092235D01*
X183962816Y-122137619D01*
X183950625Y-122119375D01*
X183459418Y-121791161D01*
X183026256Y-121705000D01*
X182733744Y-121705000D01*
X182300582Y-121791161D01*
X181809375Y-122119375D01*
X181596157Y-122438478D01*
X181535183Y-122308642D01*
X181106924Y-121918355D01*
X180696890Y-121748524D01*
X180467000Y-121869845D01*
X180213000Y-121869845D01*
X179983110Y-121748524D01*
X179573076Y-121918355D01*
X179144817Y-122308642D01*
X179083843Y-122438478D01*
X178870625Y-122119375D01*
X178379418Y-121791161D01*
X177946256Y-121705000D01*
X177653744Y-121705000D01*
X177220582Y-121791161D01*
X176729375Y-122119375D01*
X176401161Y-122610582D01*
X176285908Y-123190000D01*
X175064801Y-123190000D01*
X176844803Y-121410000D01*
X177725153Y-121410000D01*
X177800000Y-121424888D01*
X177874847Y-121410000D01*
X177874852Y-121410000D01*
X178096537Y-121365904D01*
X178347929Y-121197929D01*
X178390331Y-121134470D01*
X179384802Y-120140000D01*
X179636289Y-120140000D01*
X179753720Y-120257431D01*
X180134126Y-120415000D01*
X180545874Y-120415000D01*
X180926280Y-120257431D01*
X181217431Y-119966280D01*
X181375000Y-119585874D01*
X181375000Y-119174126D01*
X181217431Y-118793720D01*
X180926280Y-118502569D01*
X180545874Y-118345000D01*
X180134126Y-118345000D01*
X179753720Y-118502569D01*
X179636289Y-118620000D01*
X179144846Y-118620000D01*
X179069999Y-118605112D01*
X178995152Y-118620000D01*
X178995148Y-118620000D01*
X178773463Y-118664096D01*
X178522071Y-118832071D01*
X178479671Y-118895527D01*
X177485199Y-119890000D01*
X176604846Y-119890000D01*
X176529999Y-119875112D01*
X176455152Y-119890000D01*
X176455148Y-119890000D01*
X176233463Y-119934096D01*
X176233461Y-119934097D01*
X176233462Y-119934097D01*
X176045526Y-120059671D01*
X176045524Y-120059673D01*
X175982071Y-120102071D01*
X175939673Y-120165524D01*
X173675199Y-122430000D01*
X166604615Y-122430000D01*
X166486086Y-122143847D01*
X166026153Y-121683914D01*
X165425222Y-121435000D01*
X164774778Y-121435000D01*
X164173847Y-121683914D01*
X163713914Y-122143847D01*
X163465000Y-122744778D01*
X158915000Y-122744778D01*
X158915000Y-122610001D01*
X162555152Y-122610001D01*
X162629999Y-122624889D01*
X162704846Y-122610001D01*
X162704851Y-122610001D01*
X162926536Y-122565905D01*
X163177928Y-122397930D01*
X163220330Y-122334471D01*
X164144802Y-121410000D01*
X172645153Y-121410000D01*
X172720000Y-121424888D01*
X172794847Y-121410000D01*
X172794852Y-121410000D01*
X173016537Y-121365904D01*
X173267929Y-121197929D01*
X173310331Y-121134470D01*
X175574803Y-118870000D01*
X177725153Y-118870000D01*
X177800000Y-118884888D01*
X177874847Y-118870000D01*
X177874852Y-118870000D01*
X178096537Y-118825904D01*
X178347929Y-118657929D01*
X178390331Y-118594470D01*
X179109802Y-117875000D01*
X179275874Y-117875000D01*
X179656280Y-117717431D01*
X179947431Y-117426280D01*
X180105000Y-117045874D01*
X180105000Y-116634126D01*
X179947431Y-116253720D01*
X179656280Y-115962569D01*
X179570144Y-115926890D01*
X180168524Y-115926890D01*
X180338355Y-116336924D01*
X180728642Y-116765183D01*
X181253108Y-117011486D01*
X181483000Y-116890819D01*
X181483000Y-115697000D01*
X181737000Y-115697000D01*
X181737000Y-116890819D01*
X181966892Y-117011486D01*
X182491358Y-116765183D01*
X182610794Y-116634126D01*
X183115000Y-116634126D01*
X183115000Y-117045874D01*
X183272569Y-117426280D01*
X183563720Y-117717431D01*
X183944126Y-117875000D01*
X184355874Y-117875000D01*
X184736280Y-117717431D01*
X184853711Y-117600000D01*
X186615153Y-117600000D01*
X186690000Y-117614888D01*
X186764847Y-117600000D01*
X186764852Y-117600000D01*
X186986537Y-117555904D01*
X187237929Y-117387929D01*
X187280331Y-117324470D01*
X187593592Y-117011209D01*
X187813744Y-117055000D01*
X188106256Y-117055000D01*
X188539418Y-116968839D01*
X189030625Y-116640625D01*
X189358839Y-116149418D01*
X189474092Y-115570000D01*
X189358839Y-114990582D01*
X189030625Y-114499375D01*
X188732239Y-114300000D01*
X189030625Y-114100625D01*
X189358839Y-113609418D01*
X189474092Y-113030000D01*
X189358839Y-112450582D01*
X189030625Y-111959375D01*
X189012381Y-111947184D01*
X189057765Y-111938157D01*
X189267809Y-111797809D01*
X189408157Y-111587765D01*
X189457440Y-111340000D01*
X189457440Y-109640000D01*
X189408157Y-109392235D01*
X189267809Y-109182191D01*
X189057765Y-109041843D01*
X188810000Y-108992560D01*
X187110000Y-108992560D01*
X186862235Y-109041843D01*
X186652191Y-109182191D01*
X186511843Y-109392235D01*
X186462560Y-109640000D01*
X186462560Y-111340000D01*
X186511843Y-111587765D01*
X186652191Y-111797809D01*
X186862235Y-111938157D01*
X186907619Y-111947184D01*
X186889375Y-111959375D01*
X186561161Y-112450582D01*
X186445908Y-113030000D01*
X186561161Y-113609418D01*
X186889375Y-114100625D01*
X187187761Y-114300000D01*
X186889375Y-114499375D01*
X186561161Y-114990582D01*
X186445908Y-115570000D01*
X186518791Y-115936408D01*
X186375199Y-116080000D01*
X184853711Y-116080000D01*
X184736280Y-115962569D01*
X184355874Y-115805000D01*
X183944126Y-115805000D01*
X183563720Y-115962569D01*
X183272569Y-116253720D01*
X183115000Y-116634126D01*
X182610794Y-116634126D01*
X182881645Y-116336924D01*
X183051476Y-115926890D01*
X182930155Y-115697000D01*
X181737000Y-115697000D01*
X181483000Y-115697000D01*
X180289845Y-115697000D01*
X180168524Y-115926890D01*
X179570144Y-115926890D01*
X179275874Y-115805000D01*
X178864126Y-115805000D01*
X178483720Y-115962569D01*
X178192569Y-116253720D01*
X178035000Y-116634126D01*
X178035000Y-116800198D01*
X177485199Y-117350000D01*
X175334846Y-117350000D01*
X175259999Y-117335112D01*
X175185152Y-117350000D01*
X175185148Y-117350000D01*
X174963463Y-117394096D01*
X174963461Y-117394097D01*
X174963462Y-117394097D01*
X174775526Y-117519671D01*
X174775524Y-117519673D01*
X174712071Y-117562071D01*
X174669673Y-117625524D01*
X172405199Y-119890000D01*
X163904848Y-119890000D01*
X163830000Y-119875112D01*
X163755152Y-119890000D01*
X163755148Y-119890000D01*
X163581605Y-119924520D01*
X163533462Y-119934096D01*
X163485296Y-119966280D01*
X163282071Y-120102071D01*
X163239671Y-120165527D01*
X162315198Y-121090001D01*
X158927440Y-121090001D01*
X158927440Y-119850000D01*
X158878157Y-119602235D01*
X158737809Y-119392191D01*
X158527765Y-119251843D01*
X158280000Y-119202560D01*
X156680000Y-119202560D01*
X156432235Y-119251843D01*
X156222191Y-119392191D01*
X156081843Y-119602235D01*
X156032560Y-119850000D01*
X153110000Y-119850000D01*
X153110000Y-117824561D01*
X168745000Y-117824561D01*
X168745000Y-118395439D01*
X168963466Y-118922862D01*
X169367138Y-119326534D01*
X169894561Y-119545000D01*
X170465439Y-119545000D01*
X170992862Y-119326534D01*
X171396534Y-118922862D01*
X171615000Y-118395439D01*
X171615000Y-117824561D01*
X171396534Y-117297138D01*
X170992862Y-116893466D01*
X170465439Y-116675000D01*
X169894561Y-116675000D01*
X169367138Y-116893466D01*
X168963466Y-117297138D01*
X168745000Y-117824561D01*
X153110000Y-117824561D01*
X153110000Y-113030000D01*
X156072275Y-113030000D01*
X156162305Y-113482609D01*
X156284174Y-113665000D01*
X156162305Y-113847391D01*
X156072275Y-114300000D01*
X156162157Y-114751867D01*
X156131843Y-114797235D01*
X156082560Y-115045000D01*
X156082560Y-116095000D01*
X156131843Y-116342765D01*
X156272191Y-116552809D01*
X156482235Y-116693157D01*
X156730000Y-116742440D01*
X158230000Y-116742440D01*
X158477765Y-116693157D01*
X158687809Y-116552809D01*
X158828157Y-116342765D01*
X158877440Y-116095000D01*
X158877440Y-115244778D01*
X163465000Y-115244778D01*
X163465000Y-115895222D01*
X163713914Y-116496153D01*
X164173847Y-116956086D01*
X164774778Y-117205000D01*
X165425222Y-117205000D01*
X166026153Y-116956086D01*
X166486086Y-116496153D01*
X166721882Y-115926890D01*
X173818524Y-115926890D01*
X173988355Y-116336924D01*
X174378642Y-116765183D01*
X174903108Y-117011486D01*
X175133000Y-116890819D01*
X175133000Y-115697000D01*
X175387000Y-115697000D01*
X175387000Y-116890819D01*
X175616892Y-117011486D01*
X176141358Y-116765183D01*
X176531645Y-116336924D01*
X176701476Y-115926890D01*
X176580155Y-115697000D01*
X175387000Y-115697000D01*
X175133000Y-115697000D01*
X173939845Y-115697000D01*
X173818524Y-115926890D01*
X166721882Y-115926890D01*
X166735000Y-115895222D01*
X166735000Y-115244778D01*
X166486086Y-114643847D01*
X166026153Y-114183914D01*
X165425222Y-113935000D01*
X164774778Y-113935000D01*
X164173847Y-114183914D01*
X163713914Y-114643847D01*
X163465000Y-115244778D01*
X158877440Y-115244778D01*
X158877440Y-115045000D01*
X158828157Y-114797235D01*
X158797843Y-114751867D01*
X158887725Y-114300000D01*
X158797695Y-113847391D01*
X158675826Y-113665000D01*
X158797695Y-113482609D01*
X158887725Y-113030000D01*
X158797695Y-112577391D01*
X158541313Y-112193687D01*
X158157609Y-111937305D01*
X157819246Y-111870000D01*
X157140754Y-111870000D01*
X156802391Y-111937305D01*
X156418687Y-112193687D01*
X156162305Y-112577391D01*
X156072275Y-113030000D01*
X153110000Y-113030000D01*
X153110000Y-111474561D01*
X159855000Y-111474561D01*
X159855000Y-112045439D01*
X160073466Y-112572862D01*
X160477138Y-112976534D01*
X161004561Y-113195000D01*
X161575439Y-113195000D01*
X162102862Y-112976534D01*
X162506534Y-112572862D01*
X162725000Y-112045439D01*
X162725000Y-111474561D01*
X164855000Y-111474561D01*
X164855000Y-112045439D01*
X165073466Y-112572862D01*
X165477138Y-112976534D01*
X166004561Y-113195000D01*
X166575439Y-113195000D01*
X166973783Y-113030000D01*
X173745908Y-113030000D01*
X173861161Y-113609418D01*
X174189375Y-114100625D01*
X174508478Y-114313843D01*
X174378642Y-114374817D01*
X173988355Y-114803076D01*
X173818524Y-115213110D01*
X173939845Y-115443000D01*
X175133000Y-115443000D01*
X175133000Y-115423000D01*
X175387000Y-115423000D01*
X175387000Y-115443000D01*
X176580155Y-115443000D01*
X176701476Y-115213110D01*
X176531645Y-114803076D01*
X176141358Y-114374817D01*
X176011522Y-114313843D01*
X176330625Y-114100625D01*
X176658839Y-113609418D01*
X176703102Y-113386890D01*
X180168524Y-113386890D01*
X180338355Y-113796924D01*
X180728642Y-114225183D01*
X180887954Y-114300000D01*
X180728642Y-114374817D01*
X180338355Y-114803076D01*
X180168524Y-115213110D01*
X180289845Y-115443000D01*
X181483000Y-115443000D01*
X181483000Y-113157000D01*
X181737000Y-113157000D01*
X181737000Y-115443000D01*
X182930155Y-115443000D01*
X183051476Y-115213110D01*
X182881645Y-114803076D01*
X182491358Y-114374817D01*
X182332046Y-114300000D01*
X182491358Y-114225183D01*
X182881645Y-113796924D01*
X183051476Y-113386890D01*
X182930155Y-113157000D01*
X181737000Y-113157000D01*
X181483000Y-113157000D01*
X180289845Y-113157000D01*
X180168524Y-113386890D01*
X176703102Y-113386890D01*
X176774092Y-113030000D01*
X176658839Y-112450582D01*
X176330625Y-111959375D01*
X176312381Y-111947184D01*
X176357765Y-111938157D01*
X176567809Y-111797809D01*
X176708157Y-111587765D01*
X176757440Y-111340000D01*
X176757440Y-109640000D01*
X180112560Y-109640000D01*
X180112560Y-111340000D01*
X180161843Y-111587765D01*
X180302191Y-111797809D01*
X180512235Y-111938157D01*
X180615708Y-111958739D01*
X180338355Y-112263076D01*
X180168524Y-112673110D01*
X180289845Y-112903000D01*
X181483000Y-112903000D01*
X181483000Y-112883000D01*
X181737000Y-112883000D01*
X181737000Y-112903000D01*
X182930155Y-112903000D01*
X183051476Y-112673110D01*
X182881645Y-112263076D01*
X182604292Y-111958739D01*
X182707765Y-111938157D01*
X182917809Y-111797809D01*
X183058157Y-111587765D01*
X183107440Y-111340000D01*
X183107440Y-109640000D01*
X183058157Y-109392235D01*
X182917809Y-109182191D01*
X182707765Y-109041843D01*
X182460000Y-108992560D01*
X180760000Y-108992560D01*
X180512235Y-109041843D01*
X180302191Y-109182191D01*
X180161843Y-109392235D01*
X180112560Y-109640000D01*
X176757440Y-109640000D01*
X176708157Y-109392235D01*
X176567809Y-109182191D01*
X176357765Y-109041843D01*
X176110000Y-108992560D01*
X174410000Y-108992560D01*
X174162235Y-109041843D01*
X173952191Y-109182191D01*
X173811843Y-109392235D01*
X173762560Y-109640000D01*
X173762560Y-111340000D01*
X173811843Y-111587765D01*
X173952191Y-111797809D01*
X174162235Y-111938157D01*
X174207619Y-111947184D01*
X174189375Y-111959375D01*
X173861161Y-112450582D01*
X173745908Y-113030000D01*
X166973783Y-113030000D01*
X167102862Y-112976534D01*
X167506534Y-112572862D01*
X167725000Y-112045439D01*
X167725000Y-111474561D01*
X167506534Y-110947138D01*
X167102862Y-110543466D01*
X166575439Y-110325000D01*
X166004561Y-110325000D01*
X165477138Y-110543466D01*
X165073466Y-110947138D01*
X164855000Y-111474561D01*
X162725000Y-111474561D01*
X162506534Y-110947138D01*
X162102862Y-110543466D01*
X161575439Y-110325000D01*
X161004561Y-110325000D01*
X160477138Y-110543466D01*
X160073466Y-110947138D01*
X159855000Y-111474561D01*
X153110000Y-111474561D01*
X153110000Y-107150000D01*
X156032560Y-107150000D01*
X156032560Y-108750000D01*
X156081843Y-108997765D01*
X156222191Y-109207809D01*
X156432235Y-109348157D01*
X156680000Y-109397440D01*
X158280000Y-109397440D01*
X158527765Y-109348157D01*
X158737809Y-109207809D01*
X158878157Y-108997765D01*
X158927440Y-108750000D01*
X158927440Y-107950000D01*
X163636887Y-107950000D01*
X163748260Y-108509909D01*
X164065423Y-108984577D01*
X164540091Y-109301740D01*
X164958667Y-109385000D01*
X165241333Y-109385000D01*
X165659909Y-109301740D01*
X166134577Y-108984577D01*
X166451740Y-108509909D01*
X166563113Y-107950000D01*
X168716887Y-107950000D01*
X168828260Y-108509909D01*
X169145423Y-108984577D01*
X169620091Y-109301740D01*
X170038667Y-109385000D01*
X170321333Y-109385000D01*
X170739909Y-109301740D01*
X171214577Y-108984577D01*
X171531740Y-108509909D01*
X171643113Y-107950000D01*
X171531740Y-107390091D01*
X171214577Y-106915423D01*
X170739909Y-106598260D01*
X170321333Y-106515000D01*
X170038667Y-106515000D01*
X169620091Y-106598260D01*
X169145423Y-106915423D01*
X168828260Y-107390091D01*
X168716887Y-107950000D01*
X166563113Y-107950000D01*
X166451740Y-107390091D01*
X166134577Y-106915423D01*
X165659909Y-106598260D01*
X165241333Y-106515000D01*
X164958667Y-106515000D01*
X164540091Y-106598260D01*
X164065423Y-106915423D01*
X163748260Y-107390091D01*
X163636887Y-107950000D01*
X158927440Y-107950000D01*
X158927440Y-107150000D01*
X158878157Y-106902235D01*
X158737809Y-106692191D01*
X158527765Y-106551843D01*
X158280000Y-106502560D01*
X156680000Y-106502560D01*
X156432235Y-106551843D01*
X156222191Y-106692191D01*
X156081843Y-106902235D01*
X156032560Y-107150000D01*
X153110000Y-107150000D01*
X153110000Y-106724666D01*
X153172958Y-106226302D01*
X153341305Y-105801107D01*
X153610101Y-105431142D01*
X153962462Y-105139644D01*
X154376244Y-104944933D01*
X154858662Y-104852907D01*
X154951164Y-104850000D01*
X187915334Y-104850000D01*
X188413698Y-104912958D01*
X188413698Y-104912958D01*
G37*
X188413698Y-104912958D02*
X188838893Y-105081305D01*
X189208858Y-105350101D01*
X189500356Y-105702462D01*
X189695067Y-106116244D01*
X189787093Y-106598662D01*
X189790001Y-106691194D01*
X189790000Y-107880074D01*
X189790000Y-107880075D01*
X189790001Y-123145326D01*
X189727042Y-123643699D01*
X189558697Y-124068889D01*
X189289899Y-124438859D01*
X188937541Y-124730355D01*
X188523756Y-124925067D01*
X188041339Y-125017093D01*
X187948836Y-125020000D01*
X154984667Y-125020000D01*
X154486301Y-124957042D01*
X154061111Y-124788697D01*
X153691141Y-124519899D01*
X153399645Y-124167541D01*
X153204933Y-123753756D01*
X153112907Y-123271339D01*
X153110000Y-123178836D01*
X153110000Y-119850000D01*
X156032560Y-119850000D01*
X156032560Y-121450000D01*
X156081843Y-121697765D01*
X156222191Y-121907809D01*
X156231591Y-121914090D01*
X156045000Y-122364561D01*
X156045000Y-122935439D01*
X156263466Y-123462862D01*
X156667138Y-123866534D01*
X157194561Y-124085000D01*
X157765439Y-124085000D01*
X158292862Y-123866534D01*
X158696534Y-123462862D01*
X158915000Y-122935439D01*
X158915000Y-122744778D01*
X163465000Y-122744778D01*
X163465000Y-123395222D01*
X163713914Y-123996153D01*
X164173847Y-124456086D01*
X164774778Y-124705000D01*
X165425222Y-124705000D01*
X166026153Y-124456086D01*
X166486086Y-123996153D01*
X166505203Y-123950000D01*
X173915153Y-123950000D01*
X173990000Y-123964888D01*
X174064847Y-123950000D01*
X174064852Y-123950000D01*
X174286537Y-123905904D01*
X174537929Y-123737929D01*
X174580331Y-123674470D01*
X175064801Y-123190000D01*
X176285908Y-123190000D01*
X176401161Y-123769418D01*
X176729375Y-124260625D01*
X177220582Y-124588839D01*
X177653744Y-124675000D01*
X177946256Y-124675000D01*
X178379418Y-124588839D01*
X178870625Y-124260625D01*
X179083843Y-123941522D01*
X179144817Y-124071358D01*
X179573076Y-124461645D01*
X179983110Y-124631476D01*
X180213000Y-124510155D01*
X180213000Y-123317000D01*
X180193000Y-123317000D01*
X180193000Y-123063000D01*
X180213000Y-123063000D01*
X180213000Y-121869845D01*
X180467000Y-121869845D01*
X180467000Y-123063000D01*
X180487000Y-123063000D01*
X180487000Y-123317000D01*
X180467000Y-123317000D01*
X180467000Y-124510155D01*
X180696890Y-124631476D01*
X181106924Y-124461645D01*
X181535183Y-124071358D01*
X181596157Y-123941522D01*
X181809375Y-124260625D01*
X182300582Y-124588839D01*
X182733744Y-124675000D01*
X183026256Y-124675000D01*
X183459418Y-124588839D01*
X183950625Y-124260625D01*
X183962816Y-124242381D01*
X183971843Y-124287765D01*
X184112191Y-124497809D01*
X184322235Y-124638157D01*
X184570000Y-124687440D01*
X186270000Y-124687440D01*
X186517765Y-124638157D01*
X186727809Y-124497809D01*
X186868157Y-124287765D01*
X186917440Y-124040000D01*
X186917440Y-122340000D01*
X186868157Y-122092235D01*
X186727809Y-121882191D01*
X186517765Y-121741843D01*
X186270000Y-121692560D01*
X184570000Y-121692560D01*
X184322235Y-121741843D01*
X184112191Y-121882191D01*
X183971843Y-122092235D01*
X183962816Y-122137619D01*
X183950625Y-122119375D01*
X183459418Y-121791161D01*
X183026256Y-121705000D01*
X182733744Y-121705000D01*
X182300582Y-121791161D01*
X181809375Y-122119375D01*
X181596157Y-122438478D01*
X181535183Y-122308642D01*
X181106924Y-121918355D01*
X180696890Y-121748524D01*
X180467000Y-121869845D01*
X180213000Y-121869845D01*
X179983110Y-121748524D01*
X179573076Y-121918355D01*
X179144817Y-122308642D01*
X179083843Y-122438478D01*
X178870625Y-122119375D01*
X178379418Y-121791161D01*
X177946256Y-121705000D01*
X177653744Y-121705000D01*
X177220582Y-121791161D01*
X176729375Y-122119375D01*
X176401161Y-122610582D01*
X176285908Y-123190000D01*
X175064801Y-123190000D01*
X176844803Y-121410000D01*
X177725153Y-121410000D01*
X177800000Y-121424888D01*
X177874847Y-121410000D01*
X177874852Y-121410000D01*
X178096537Y-121365904D01*
X178347929Y-121197929D01*
X178390331Y-121134470D01*
X179384802Y-120140000D01*
X179636289Y-120140000D01*
X179753720Y-120257431D01*
X180134126Y-120415000D01*
X180545874Y-120415000D01*
X180926280Y-120257431D01*
X181217431Y-119966280D01*
X181375000Y-119585874D01*
X181375000Y-119174126D01*
X181217431Y-118793720D01*
X180926280Y-118502569D01*
X180545874Y-118345000D01*
X180134126Y-118345000D01*
X179753720Y-118502569D01*
X179636289Y-118620000D01*
X179144846Y-118620000D01*
X179069999Y-118605112D01*
X178995152Y-118620000D01*
X178995148Y-118620000D01*
X178773463Y-118664096D01*
X178522071Y-118832071D01*
X178479671Y-118895527D01*
X177485199Y-119890000D01*
X176604846Y-119890000D01*
X176529999Y-119875112D01*
X176455152Y-119890000D01*
X176455148Y-119890000D01*
X176233463Y-119934096D01*
X176233461Y-119934097D01*
X176233462Y-119934097D01*
X176045526Y-120059671D01*
X176045524Y-120059673D01*
X175982071Y-120102071D01*
X175939673Y-120165524D01*
X173675199Y-122430000D01*
X166604615Y-122430000D01*
X166486086Y-122143847D01*
X166026153Y-121683914D01*
X165425222Y-121435000D01*
X164774778Y-121435000D01*
X164173847Y-121683914D01*
X163713914Y-122143847D01*
X163465000Y-122744778D01*
X158915000Y-122744778D01*
X158915000Y-122610001D01*
X162555152Y-122610001D01*
X162629999Y-122624889D01*
X162704846Y-122610001D01*
X162704851Y-122610001D01*
X162926536Y-122565905D01*
X163177928Y-122397930D01*
X163220330Y-122334471D01*
X164144802Y-121410000D01*
X172645153Y-121410000D01*
X172720000Y-121424888D01*
X172794847Y-121410000D01*
X172794852Y-121410000D01*
X173016537Y-121365904D01*
X173267929Y-121197929D01*
X173310331Y-121134470D01*
X175574803Y-118870000D01*
X177725153Y-118870000D01*
X177800000Y-118884888D01*
X177874847Y-118870000D01*
X177874852Y-118870000D01*
X178096537Y-118825904D01*
X178347929Y-118657929D01*
X178390331Y-118594470D01*
X179109802Y-117875000D01*
X179275874Y-117875000D01*
X179656280Y-117717431D01*
X179947431Y-117426280D01*
X180105000Y-117045874D01*
X180105000Y-116634126D01*
X179947431Y-116253720D01*
X179656280Y-115962569D01*
X179570144Y-115926890D01*
X180168524Y-115926890D01*
X180338355Y-116336924D01*
X180728642Y-116765183D01*
X181253108Y-117011486D01*
X181483000Y-116890819D01*
X181483000Y-115697000D01*
X181737000Y-115697000D01*
X181737000Y-116890819D01*
X181966892Y-117011486D01*
X182491358Y-116765183D01*
X182610794Y-116634126D01*
X183115000Y-116634126D01*
X183115000Y-117045874D01*
X183272569Y-117426280D01*
X183563720Y-117717431D01*
X183944126Y-117875000D01*
X184355874Y-117875000D01*
X184736280Y-117717431D01*
X184853711Y-117600000D01*
X186615153Y-117600000D01*
X186690000Y-117614888D01*
X186764847Y-117600000D01*
X186764852Y-117600000D01*
X186986537Y-117555904D01*
X187237929Y-117387929D01*
X187280331Y-117324470D01*
X187593592Y-117011209D01*
X187813744Y-117055000D01*
X188106256Y-117055000D01*
X188539418Y-116968839D01*
X189030625Y-116640625D01*
X189358839Y-116149418D01*
X189474092Y-115570000D01*
X189358839Y-114990582D01*
X189030625Y-114499375D01*
X188732239Y-114300000D01*
X189030625Y-114100625D01*
X189358839Y-113609418D01*
X189474092Y-113030000D01*
X189358839Y-112450582D01*
X189030625Y-111959375D01*
X189012381Y-111947184D01*
X189057765Y-111938157D01*
X189267809Y-111797809D01*
X189408157Y-111587765D01*
X189457440Y-111340000D01*
X189457440Y-109640000D01*
X189408157Y-109392235D01*
X189267809Y-109182191D01*
X189057765Y-109041843D01*
X188810000Y-108992560D01*
X187110000Y-108992560D01*
X186862235Y-109041843D01*
X186652191Y-109182191D01*
X186511843Y-109392235D01*
X186462560Y-109640000D01*
X186462560Y-111340000D01*
X186511843Y-111587765D01*
X186652191Y-111797809D01*
X186862235Y-111938157D01*
X186907619Y-111947184D01*
X186889375Y-111959375D01*
X186561161Y-112450582D01*
X186445908Y-113030000D01*
X186561161Y-113609418D01*
X186889375Y-114100625D01*
X187187761Y-114300000D01*
X186889375Y-114499375D01*
X186561161Y-114990582D01*
X186445908Y-115570000D01*
X186518791Y-115936408D01*
X186375199Y-116080000D01*
X184853711Y-116080000D01*
X184736280Y-115962569D01*
X184355874Y-115805000D01*
X183944126Y-115805000D01*
X183563720Y-115962569D01*
X183272569Y-116253720D01*
X183115000Y-116634126D01*
X182610794Y-116634126D01*
X182881645Y-116336924D01*
X183051476Y-115926890D01*
X182930155Y-115697000D01*
X181737000Y-115697000D01*
X181483000Y-115697000D01*
X180289845Y-115697000D01*
X180168524Y-115926890D01*
X179570144Y-115926890D01*
X179275874Y-115805000D01*
X178864126Y-115805000D01*
X178483720Y-115962569D01*
X178192569Y-116253720D01*
X178035000Y-116634126D01*
X178035000Y-116800198D01*
X177485199Y-117350000D01*
X175334846Y-117350000D01*
X175259999Y-117335112D01*
X175185152Y-117350000D01*
X175185148Y-117350000D01*
X174963463Y-117394096D01*
X174963461Y-117394097D01*
X174963462Y-117394097D01*
X174775526Y-117519671D01*
X174775524Y-117519673D01*
X174712071Y-117562071D01*
X174669673Y-117625524D01*
X172405199Y-119890000D01*
X163904848Y-119890000D01*
X163830000Y-119875112D01*
X163755152Y-119890000D01*
X163755148Y-119890000D01*
X163581605Y-119924520D01*
X163533462Y-119934096D01*
X163485296Y-119966280D01*
X163282071Y-120102071D01*
X163239671Y-120165527D01*
X162315198Y-121090001D01*
X158927440Y-121090001D01*
X158927440Y-119850000D01*
X158878157Y-119602235D01*
X158737809Y-119392191D01*
X158527765Y-119251843D01*
X158280000Y-119202560D01*
X156680000Y-119202560D01*
X156432235Y-119251843D01*
X156222191Y-119392191D01*
X156081843Y-119602235D01*
X156032560Y-119850000D01*
X153110000Y-119850000D01*
X153110000Y-117824561D01*
X168745000Y-117824561D01*
X168745000Y-118395439D01*
X168963466Y-118922862D01*
X169367138Y-119326534D01*
X169894561Y-119545000D01*
X170465439Y-119545000D01*
X170992862Y-119326534D01*
X171396534Y-118922862D01*
X171615000Y-118395439D01*
X171615000Y-117824561D01*
X171396534Y-117297138D01*
X170992862Y-116893466D01*
X170465439Y-116675000D01*
X169894561Y-116675000D01*
X169367138Y-116893466D01*
X168963466Y-117297138D01*
X168745000Y-117824561D01*
X153110000Y-117824561D01*
X153110000Y-113030000D01*
X156072275Y-113030000D01*
X156162305Y-113482609D01*
X156284174Y-113665000D01*
X156162305Y-113847391D01*
X156072275Y-114300000D01*
X156162157Y-114751867D01*
X156131843Y-114797235D01*
X156082560Y-115045000D01*
X156082560Y-116095000D01*
X156131843Y-116342765D01*
X156272191Y-116552809D01*
X156482235Y-116693157D01*
X156730000Y-116742440D01*
X158230000Y-116742440D01*
X158477765Y-116693157D01*
X158687809Y-116552809D01*
X158828157Y-116342765D01*
X158877440Y-116095000D01*
X158877440Y-115244778D01*
X163465000Y-115244778D01*
X163465000Y-115895222D01*
X163713914Y-116496153D01*
X164173847Y-116956086D01*
X164774778Y-117205000D01*
X165425222Y-117205000D01*
X166026153Y-116956086D01*
X166486086Y-116496153D01*
X166721882Y-115926890D01*
X173818524Y-115926890D01*
X173988355Y-116336924D01*
X174378642Y-116765183D01*
X174903108Y-117011486D01*
X175133000Y-116890819D01*
X175133000Y-115697000D01*
X175387000Y-115697000D01*
X175387000Y-116890819D01*
X175616892Y-117011486D01*
X176141358Y-116765183D01*
X176531645Y-116336924D01*
X176701476Y-115926890D01*
X176580155Y-115697000D01*
X175387000Y-115697000D01*
X175133000Y-115697000D01*
X173939845Y-115697000D01*
X173818524Y-115926890D01*
X166721882Y-115926890D01*
X166735000Y-115895222D01*
X166735000Y-115244778D01*
X166486086Y-114643847D01*
X166026153Y-114183914D01*
X165425222Y-113935000D01*
X164774778Y-113935000D01*
X164173847Y-114183914D01*
X163713914Y-114643847D01*
X163465000Y-115244778D01*
X158877440Y-115244778D01*
X158877440Y-115045000D01*
X158828157Y-114797235D01*
X158797843Y-114751867D01*
X158887725Y-114300000D01*
X158797695Y-113847391D01*
X158675826Y-113665000D01*
X158797695Y-113482609D01*
X158887725Y-113030000D01*
X158797695Y-112577391D01*
X158541313Y-112193687D01*
X158157609Y-111937305D01*
X157819246Y-111870000D01*
X157140754Y-111870000D01*
X156802391Y-111937305D01*
X156418687Y-112193687D01*
X156162305Y-112577391D01*
X156072275Y-113030000D01*
X153110000Y-113030000D01*
X153110000Y-111474561D01*
X159855000Y-111474561D01*
X159855000Y-112045439D01*
X160073466Y-112572862D01*
X160477138Y-112976534D01*
X161004561Y-113195000D01*
X161575439Y-113195000D01*
X162102862Y-112976534D01*
X162506534Y-112572862D01*
X162725000Y-112045439D01*
X162725000Y-111474561D01*
X164855000Y-111474561D01*
X164855000Y-112045439D01*
X165073466Y-112572862D01*
X165477138Y-112976534D01*
X166004561Y-113195000D01*
X166575439Y-113195000D01*
X166973783Y-113030000D01*
X173745908Y-113030000D01*
X173861161Y-113609418D01*
X174189375Y-114100625D01*
X174508478Y-114313843D01*
X174378642Y-114374817D01*
X173988355Y-114803076D01*
X173818524Y-115213110D01*
X173939845Y-115443000D01*
X175133000Y-115443000D01*
X175133000Y-115423000D01*
X175387000Y-115423000D01*
X175387000Y-115443000D01*
X176580155Y-115443000D01*
X176701476Y-115213110D01*
X176531645Y-114803076D01*
X176141358Y-114374817D01*
X176011522Y-114313843D01*
X176330625Y-114100625D01*
X176658839Y-113609418D01*
X176703102Y-113386890D01*
X180168524Y-113386890D01*
X180338355Y-113796924D01*
X180728642Y-114225183D01*
X180887954Y-114300000D01*
X180728642Y-114374817D01*
X180338355Y-114803076D01*
X180168524Y-115213110D01*
X180289845Y-115443000D01*
X181483000Y-115443000D01*
X181483000Y-113157000D01*
X181737000Y-113157000D01*
X181737000Y-115443000D01*
X182930155Y-115443000D01*
X183051476Y-115213110D01*
X182881645Y-114803076D01*
X182491358Y-114374817D01*
X182332046Y-114300000D01*
X182491358Y-114225183D01*
X182881645Y-113796924D01*
X183051476Y-113386890D01*
X182930155Y-113157000D01*
X181737000Y-113157000D01*
X181483000Y-113157000D01*
X180289845Y-113157000D01*
X180168524Y-113386890D01*
X176703102Y-113386890D01*
X176774092Y-113030000D01*
X176658839Y-112450582D01*
X176330625Y-111959375D01*
X176312381Y-111947184D01*
X176357765Y-111938157D01*
X176567809Y-111797809D01*
X176708157Y-111587765D01*
X176757440Y-111340000D01*
X176757440Y-109640000D01*
X180112560Y-109640000D01*
X180112560Y-111340000D01*
X180161843Y-111587765D01*
X180302191Y-111797809D01*
X180512235Y-111938157D01*
X180615708Y-111958739D01*
X180338355Y-112263076D01*
X180168524Y-112673110D01*
X180289845Y-112903000D01*
X181483000Y-112903000D01*
X181483000Y-112883000D01*
X181737000Y-112883000D01*
X181737000Y-112903000D01*
X182930155Y-112903000D01*
X183051476Y-112673110D01*
X182881645Y-112263076D01*
X182604292Y-111958739D01*
X182707765Y-111938157D01*
X182917809Y-111797809D01*
X183058157Y-111587765D01*
X183107440Y-111340000D01*
X183107440Y-109640000D01*
X183058157Y-109392235D01*
X182917809Y-109182191D01*
X182707765Y-109041843D01*
X182460000Y-108992560D01*
X180760000Y-108992560D01*
X180512235Y-109041843D01*
X180302191Y-109182191D01*
X180161843Y-109392235D01*
X180112560Y-109640000D01*
X176757440Y-109640000D01*
X176708157Y-109392235D01*
X176567809Y-109182191D01*
X176357765Y-109041843D01*
X176110000Y-108992560D01*
X174410000Y-108992560D01*
X174162235Y-109041843D01*
X173952191Y-109182191D01*
X173811843Y-109392235D01*
X173762560Y-109640000D01*
X173762560Y-111340000D01*
X173811843Y-111587765D01*
X173952191Y-111797809D01*
X174162235Y-111938157D01*
X174207619Y-111947184D01*
X174189375Y-111959375D01*
X173861161Y-112450582D01*
X173745908Y-113030000D01*
X166973783Y-113030000D01*
X167102862Y-112976534D01*
X167506534Y-112572862D01*
X167725000Y-112045439D01*
X167725000Y-111474561D01*
X167506534Y-110947138D01*
X167102862Y-110543466D01*
X166575439Y-110325000D01*
X166004561Y-110325000D01*
X165477138Y-110543466D01*
X165073466Y-110947138D01*
X164855000Y-111474561D01*
X162725000Y-111474561D01*
X162506534Y-110947138D01*
X162102862Y-110543466D01*
X161575439Y-110325000D01*
X161004561Y-110325000D01*
X160477138Y-110543466D01*
X160073466Y-110947138D01*
X159855000Y-111474561D01*
X153110000Y-111474561D01*
X153110000Y-107150000D01*
X156032560Y-107150000D01*
X156032560Y-108750000D01*
X156081843Y-108997765D01*
X156222191Y-109207809D01*
X156432235Y-109348157D01*
X156680000Y-109397440D01*
X158280000Y-109397440D01*
X158527765Y-109348157D01*
X158737809Y-109207809D01*
X158878157Y-108997765D01*
X158927440Y-108750000D01*
X158927440Y-107950000D01*
X163636887Y-107950000D01*
X163748260Y-108509909D01*
X164065423Y-108984577D01*
X164540091Y-109301740D01*
X164958667Y-109385000D01*
X165241333Y-109385000D01*
X165659909Y-109301740D01*
X166134577Y-108984577D01*
X166451740Y-108509909D01*
X166563113Y-107950000D01*
X168716887Y-107950000D01*
X168828260Y-108509909D01*
X169145423Y-108984577D01*
X169620091Y-109301740D01*
X170038667Y-109385000D01*
X170321333Y-109385000D01*
X170739909Y-109301740D01*
X171214577Y-108984577D01*
X171531740Y-108509909D01*
X171643113Y-107950000D01*
X171531740Y-107390091D01*
X171214577Y-106915423D01*
X170739909Y-106598260D01*
X170321333Y-106515000D01*
X170038667Y-106515000D01*
X169620091Y-106598260D01*
X169145423Y-106915423D01*
X168828260Y-107390091D01*
X168716887Y-107950000D01*
X166563113Y-107950000D01*
X166451740Y-107390091D01*
X166134577Y-106915423D01*
X165659909Y-106598260D01*
X165241333Y-106515000D01*
X164958667Y-106515000D01*
X164540091Y-106598260D01*
X164065423Y-106915423D01*
X163748260Y-107390091D01*
X163636887Y-107950000D01*
X158927440Y-107950000D01*
X158927440Y-107150000D01*
X158878157Y-106902235D01*
X158737809Y-106692191D01*
X158527765Y-106551843D01*
X158280000Y-106502560D01*
X156680000Y-106502560D01*
X156432235Y-106551843D01*
X156222191Y-106692191D01*
X156081843Y-106902235D01*
X156032560Y-107150000D01*
X153110000Y-107150000D01*
X153110000Y-106724666D01*
X153172958Y-106226302D01*
X153341305Y-105801107D01*
X153610101Y-105431142D01*
X153962462Y-105139644D01*
X154376244Y-104944933D01*
X154858662Y-104852907D01*
X154951164Y-104850000D01*
X187915334Y-104850000D01*
X188413698Y-104912958D01*
G04 #@! TD*
M02*
