G04 #@! TF.GenerationSoftware,KiCad,Pcbnew,5.0.2+dfsg1-1+build2*
G04 #@! TF.CreationDate,2019-10-24T23:13:18-07:00*
G04 #@! TF.ProjectId,pcb_class,7063625f-636c-4617-9373-2e6b69636164,rev?*
G04 #@! TF.SameCoordinates,Original*
G04 #@! TF.FileFunction,Soldermask,Top*
G04 #@! TF.FilePolarity,Negative*
%FSLAX46Y46*%
G04 Gerber Fmt 4.6, Leading zero omitted, Abs format (unit mm)*
G04 Created by KiCad (PCBNEW 5.0.2+dfsg1-1+build2) date Thu 24 Oct 2019 11:13:18 PM PDT*
%MOMM*%
%LPD*%
G01*
G04 APERTURE LIST*
%ADD10C,0.100000*%
G04 APERTURE END LIST*
D10*
G36*
X165406565Y-122059389D02*
X165597834Y-122138615D01*
X165769976Y-122253637D01*
X165916363Y-122400024D01*
X166031385Y-122572166D01*
X166110611Y-122763435D01*
X166151000Y-122966484D01*
X166151000Y-123173516D01*
X166110611Y-123376565D01*
X166031385Y-123567834D01*
X165916363Y-123739976D01*
X165769976Y-123886363D01*
X165597834Y-124001385D01*
X165406565Y-124080611D01*
X165203516Y-124121000D01*
X164996484Y-124121000D01*
X164793435Y-124080611D01*
X164602166Y-124001385D01*
X164430024Y-123886363D01*
X164283637Y-123739976D01*
X164168615Y-123567834D01*
X164089389Y-123376565D01*
X164049000Y-123173516D01*
X164049000Y-122966484D01*
X164089389Y-122763435D01*
X164168615Y-122572166D01*
X164283637Y-122400024D01*
X164430024Y-122253637D01*
X164602166Y-122138615D01*
X164793435Y-122059389D01*
X164996484Y-122019000D01*
X165203516Y-122019000D01*
X165406565Y-122059389D01*
X165406565Y-122059389D01*
G37*
G36*
X186321000Y-124091000D02*
X184519000Y-124091000D01*
X184519000Y-122289000D01*
X186321000Y-122289000D01*
X186321000Y-124091000D01*
X186321000Y-124091000D01*
G37*
G36*
X177910443Y-122295519D02*
X177976627Y-122302037D01*
X178089853Y-122336384D01*
X178146467Y-122353557D01*
X178285087Y-122427652D01*
X178302991Y-122437222D01*
X178338729Y-122466552D01*
X178440186Y-122549814D01*
X178523448Y-122651271D01*
X178552778Y-122687009D01*
X178552779Y-122687011D01*
X178636443Y-122843533D01*
X178636443Y-122843534D01*
X178687963Y-123013373D01*
X178705359Y-123190000D01*
X178687963Y-123366627D01*
X178676581Y-123404147D01*
X178636443Y-123536467D01*
X178619676Y-123567835D01*
X178552778Y-123692991D01*
X178523448Y-123728729D01*
X178440186Y-123830186D01*
X178338729Y-123913448D01*
X178302991Y-123942778D01*
X178302989Y-123942779D01*
X178146467Y-124026443D01*
X178089853Y-124043616D01*
X177976627Y-124077963D01*
X177910442Y-124084482D01*
X177844260Y-124091000D01*
X177755740Y-124091000D01*
X177689558Y-124084482D01*
X177623373Y-124077963D01*
X177510147Y-124043616D01*
X177453533Y-124026443D01*
X177297011Y-123942779D01*
X177297009Y-123942778D01*
X177261271Y-123913448D01*
X177159814Y-123830186D01*
X177076552Y-123728729D01*
X177047222Y-123692991D01*
X176980324Y-123567835D01*
X176963557Y-123536467D01*
X176923419Y-123404147D01*
X176912037Y-123366627D01*
X176894641Y-123190000D01*
X176912037Y-123013373D01*
X176963557Y-122843534D01*
X176963557Y-122843533D01*
X177047221Y-122687011D01*
X177047222Y-122687009D01*
X177076552Y-122651271D01*
X177159814Y-122549814D01*
X177261271Y-122466552D01*
X177297009Y-122437222D01*
X177314913Y-122427652D01*
X177453533Y-122353557D01*
X177510147Y-122336384D01*
X177623373Y-122302037D01*
X177689557Y-122295519D01*
X177755740Y-122289000D01*
X177844260Y-122289000D01*
X177910443Y-122295519D01*
X177910443Y-122295519D01*
G37*
G36*
X180450443Y-122295519D02*
X180516627Y-122302037D01*
X180629853Y-122336384D01*
X180686467Y-122353557D01*
X180825087Y-122427652D01*
X180842991Y-122437222D01*
X180878729Y-122466552D01*
X180980186Y-122549814D01*
X181063448Y-122651271D01*
X181092778Y-122687009D01*
X181092779Y-122687011D01*
X181176443Y-122843533D01*
X181176443Y-122843534D01*
X181227963Y-123013373D01*
X181245359Y-123190000D01*
X181227963Y-123366627D01*
X181216581Y-123404147D01*
X181176443Y-123536467D01*
X181159676Y-123567835D01*
X181092778Y-123692991D01*
X181063448Y-123728729D01*
X180980186Y-123830186D01*
X180878729Y-123913448D01*
X180842991Y-123942778D01*
X180842989Y-123942779D01*
X180686467Y-124026443D01*
X180629853Y-124043616D01*
X180516627Y-124077963D01*
X180450442Y-124084482D01*
X180384260Y-124091000D01*
X180295740Y-124091000D01*
X180229558Y-124084482D01*
X180163373Y-124077963D01*
X180050147Y-124043616D01*
X179993533Y-124026443D01*
X179837011Y-123942779D01*
X179837009Y-123942778D01*
X179801271Y-123913448D01*
X179699814Y-123830186D01*
X179616552Y-123728729D01*
X179587222Y-123692991D01*
X179520324Y-123567835D01*
X179503557Y-123536467D01*
X179463419Y-123404147D01*
X179452037Y-123366627D01*
X179434641Y-123190000D01*
X179452037Y-123013373D01*
X179503557Y-122843534D01*
X179503557Y-122843533D01*
X179587221Y-122687011D01*
X179587222Y-122687009D01*
X179616552Y-122651271D01*
X179699814Y-122549814D01*
X179801271Y-122466552D01*
X179837009Y-122437222D01*
X179854913Y-122427652D01*
X179993533Y-122353557D01*
X180050147Y-122336384D01*
X180163373Y-122302037D01*
X180229557Y-122295519D01*
X180295740Y-122289000D01*
X180384260Y-122289000D01*
X180450443Y-122295519D01*
X180450443Y-122295519D01*
G37*
G36*
X182990443Y-122295519D02*
X183056627Y-122302037D01*
X183169853Y-122336384D01*
X183226467Y-122353557D01*
X183365087Y-122427652D01*
X183382991Y-122437222D01*
X183418729Y-122466552D01*
X183520186Y-122549814D01*
X183603448Y-122651271D01*
X183632778Y-122687009D01*
X183632779Y-122687011D01*
X183716443Y-122843533D01*
X183716443Y-122843534D01*
X183767963Y-123013373D01*
X183785359Y-123190000D01*
X183767963Y-123366627D01*
X183756581Y-123404147D01*
X183716443Y-123536467D01*
X183699676Y-123567835D01*
X183632778Y-123692991D01*
X183603448Y-123728729D01*
X183520186Y-123830186D01*
X183418729Y-123913448D01*
X183382991Y-123942778D01*
X183382989Y-123942779D01*
X183226467Y-124026443D01*
X183169853Y-124043616D01*
X183056627Y-124077963D01*
X182990442Y-124084482D01*
X182924260Y-124091000D01*
X182835740Y-124091000D01*
X182769558Y-124084482D01*
X182703373Y-124077963D01*
X182590147Y-124043616D01*
X182533533Y-124026443D01*
X182377011Y-123942779D01*
X182377009Y-123942778D01*
X182341271Y-123913448D01*
X182239814Y-123830186D01*
X182156552Y-123728729D01*
X182127222Y-123692991D01*
X182060324Y-123567835D01*
X182043557Y-123536467D01*
X182003419Y-123404147D01*
X181992037Y-123366627D01*
X181974641Y-123190000D01*
X181992037Y-123013373D01*
X182043557Y-122843534D01*
X182043557Y-122843533D01*
X182127221Y-122687011D01*
X182127222Y-122687009D01*
X182156552Y-122651271D01*
X182239814Y-122549814D01*
X182341271Y-122466552D01*
X182377009Y-122437222D01*
X182394913Y-122427652D01*
X182533533Y-122353557D01*
X182590147Y-122336384D01*
X182703373Y-122302037D01*
X182769557Y-122295519D01*
X182835740Y-122289000D01*
X182924260Y-122289000D01*
X182990443Y-122295519D01*
X182990443Y-122295519D01*
G37*
G36*
X157728228Y-121831703D02*
X157883100Y-121895853D01*
X158022481Y-121988985D01*
X158141015Y-122107519D01*
X158234147Y-122246900D01*
X158298297Y-122401772D01*
X158331000Y-122566184D01*
X158331000Y-122733816D01*
X158298297Y-122898228D01*
X158234147Y-123053100D01*
X158141015Y-123192481D01*
X158022481Y-123311015D01*
X157883100Y-123404147D01*
X157728228Y-123468297D01*
X157563816Y-123501000D01*
X157396184Y-123501000D01*
X157231772Y-123468297D01*
X157076900Y-123404147D01*
X156937519Y-123311015D01*
X156818985Y-123192481D01*
X156725853Y-123053100D01*
X156661703Y-122898228D01*
X156629000Y-122733816D01*
X156629000Y-122566184D01*
X156661703Y-122401772D01*
X156725853Y-122246900D01*
X156818985Y-122107519D01*
X156937519Y-121988985D01*
X157076900Y-121895853D01*
X157231772Y-121831703D01*
X157396184Y-121799000D01*
X157563816Y-121799000D01*
X157728228Y-121831703D01*
X157728228Y-121831703D01*
G37*
G36*
X158331000Y-121501000D02*
X156629000Y-121501000D01*
X156629000Y-119799000D01*
X158331000Y-119799000D01*
X158331000Y-121501000D01*
X158331000Y-121501000D01*
G37*
G36*
X170428228Y-117291703D02*
X170583100Y-117355853D01*
X170722481Y-117448985D01*
X170841015Y-117567519D01*
X170934147Y-117706900D01*
X170998297Y-117861772D01*
X171031000Y-118026184D01*
X171031000Y-118193816D01*
X170998297Y-118358228D01*
X170934147Y-118513100D01*
X170841015Y-118652481D01*
X170722481Y-118771015D01*
X170583100Y-118864147D01*
X170428228Y-118928297D01*
X170263816Y-118961000D01*
X170096184Y-118961000D01*
X169931772Y-118928297D01*
X169776900Y-118864147D01*
X169637519Y-118771015D01*
X169518985Y-118652481D01*
X169425853Y-118513100D01*
X169361703Y-118358228D01*
X169329000Y-118193816D01*
X169329000Y-118026184D01*
X169361703Y-117861772D01*
X169425853Y-117706900D01*
X169518985Y-117567519D01*
X169637519Y-117448985D01*
X169776900Y-117355853D01*
X169931772Y-117291703D01*
X170096184Y-117259000D01*
X170263816Y-117259000D01*
X170428228Y-117291703D01*
X170428228Y-117291703D01*
G37*
G36*
X165406565Y-114559389D02*
X165597834Y-114638615D01*
X165769976Y-114753637D01*
X165916363Y-114900024D01*
X166031385Y-115072166D01*
X166110611Y-115263435D01*
X166151000Y-115466484D01*
X166151000Y-115673516D01*
X166110611Y-115876565D01*
X166031385Y-116067834D01*
X165916363Y-116239976D01*
X165769976Y-116386363D01*
X165597834Y-116501385D01*
X165406565Y-116580611D01*
X165203516Y-116621000D01*
X164996484Y-116621000D01*
X164793435Y-116580611D01*
X164602166Y-116501385D01*
X164430024Y-116386363D01*
X164283637Y-116239976D01*
X164168615Y-116067834D01*
X164089389Y-115876565D01*
X164049000Y-115673516D01*
X164049000Y-115466484D01*
X164089389Y-115263435D01*
X164168615Y-115072166D01*
X164283637Y-114900024D01*
X164430024Y-114753637D01*
X164602166Y-114638615D01*
X164793435Y-114559389D01*
X164996484Y-114519000D01*
X165203516Y-114519000D01*
X165406565Y-114559389D01*
X165406565Y-114559389D01*
G37*
G36*
X175370443Y-114675519D02*
X175436627Y-114682037D01*
X175549853Y-114716384D01*
X175606467Y-114733557D01*
X175711503Y-114789701D01*
X175762991Y-114817222D01*
X175781869Y-114832715D01*
X175900186Y-114929814D01*
X175952861Y-114994000D01*
X176012778Y-115067009D01*
X176012779Y-115067011D01*
X176096443Y-115223533D01*
X176096443Y-115223534D01*
X176147963Y-115393373D01*
X176165359Y-115570000D01*
X176147963Y-115746627D01*
X176113616Y-115859853D01*
X176096443Y-115916467D01*
X176022348Y-116055087D01*
X176012778Y-116072991D01*
X175983448Y-116108729D01*
X175900186Y-116210186D01*
X175798729Y-116293448D01*
X175762991Y-116322778D01*
X175762989Y-116322779D01*
X175606467Y-116406443D01*
X175549853Y-116423616D01*
X175436627Y-116457963D01*
X175370442Y-116464482D01*
X175304260Y-116471000D01*
X175215740Y-116471000D01*
X175149558Y-116464482D01*
X175083373Y-116457963D01*
X174970147Y-116423616D01*
X174913533Y-116406443D01*
X174757011Y-116322779D01*
X174757009Y-116322778D01*
X174721271Y-116293448D01*
X174619814Y-116210186D01*
X174536552Y-116108729D01*
X174507222Y-116072991D01*
X174497652Y-116055087D01*
X174423557Y-115916467D01*
X174406384Y-115859853D01*
X174372037Y-115746627D01*
X174354641Y-115570000D01*
X174372037Y-115393373D01*
X174423557Y-115223534D01*
X174423557Y-115223533D01*
X174507221Y-115067011D01*
X174507222Y-115067009D01*
X174567139Y-114994000D01*
X174619814Y-114929814D01*
X174738131Y-114832715D01*
X174757009Y-114817222D01*
X174808497Y-114789701D01*
X174913533Y-114733557D01*
X174970147Y-114716384D01*
X175083373Y-114682037D01*
X175149557Y-114675519D01*
X175215740Y-114669000D01*
X175304260Y-114669000D01*
X175370443Y-114675519D01*
X175370443Y-114675519D01*
G37*
G36*
X181720443Y-114675519D02*
X181786627Y-114682037D01*
X181899853Y-114716384D01*
X181956467Y-114733557D01*
X182061503Y-114789701D01*
X182112991Y-114817222D01*
X182131869Y-114832715D01*
X182250186Y-114929814D01*
X182302861Y-114994000D01*
X182362778Y-115067009D01*
X182362779Y-115067011D01*
X182446443Y-115223533D01*
X182446443Y-115223534D01*
X182497963Y-115393373D01*
X182515359Y-115570000D01*
X182497963Y-115746627D01*
X182463616Y-115859853D01*
X182446443Y-115916467D01*
X182372348Y-116055087D01*
X182362778Y-116072991D01*
X182333448Y-116108729D01*
X182250186Y-116210186D01*
X182148729Y-116293448D01*
X182112991Y-116322778D01*
X182112989Y-116322779D01*
X181956467Y-116406443D01*
X181899853Y-116423616D01*
X181786627Y-116457963D01*
X181720442Y-116464482D01*
X181654260Y-116471000D01*
X181565740Y-116471000D01*
X181499558Y-116464482D01*
X181433373Y-116457963D01*
X181320147Y-116423616D01*
X181263533Y-116406443D01*
X181107011Y-116322779D01*
X181107009Y-116322778D01*
X181071271Y-116293448D01*
X180969814Y-116210186D01*
X180886552Y-116108729D01*
X180857222Y-116072991D01*
X180847652Y-116055087D01*
X180773557Y-115916467D01*
X180756384Y-115859853D01*
X180722037Y-115746627D01*
X180704641Y-115570000D01*
X180722037Y-115393373D01*
X180773557Y-115223534D01*
X180773557Y-115223533D01*
X180857221Y-115067011D01*
X180857222Y-115067009D01*
X180917139Y-114994000D01*
X180969814Y-114929814D01*
X181088131Y-114832715D01*
X181107009Y-114817222D01*
X181158497Y-114789701D01*
X181263533Y-114733557D01*
X181320147Y-114716384D01*
X181433373Y-114682037D01*
X181499557Y-114675519D01*
X181565740Y-114669000D01*
X181654260Y-114669000D01*
X181720443Y-114675519D01*
X181720443Y-114675519D01*
G37*
G36*
X188070443Y-114675519D02*
X188136627Y-114682037D01*
X188249853Y-114716384D01*
X188306467Y-114733557D01*
X188411503Y-114789701D01*
X188462991Y-114817222D01*
X188481869Y-114832715D01*
X188600186Y-114929814D01*
X188652861Y-114994000D01*
X188712778Y-115067009D01*
X188712779Y-115067011D01*
X188796443Y-115223533D01*
X188796443Y-115223534D01*
X188847963Y-115393373D01*
X188865359Y-115570000D01*
X188847963Y-115746627D01*
X188813616Y-115859853D01*
X188796443Y-115916467D01*
X188722348Y-116055087D01*
X188712778Y-116072991D01*
X188683448Y-116108729D01*
X188600186Y-116210186D01*
X188498729Y-116293448D01*
X188462991Y-116322778D01*
X188462989Y-116322779D01*
X188306467Y-116406443D01*
X188249853Y-116423616D01*
X188136627Y-116457963D01*
X188070442Y-116464482D01*
X188004260Y-116471000D01*
X187915740Y-116471000D01*
X187849558Y-116464482D01*
X187783373Y-116457963D01*
X187670147Y-116423616D01*
X187613533Y-116406443D01*
X187457011Y-116322779D01*
X187457009Y-116322778D01*
X187421271Y-116293448D01*
X187319814Y-116210186D01*
X187236552Y-116108729D01*
X187207222Y-116072991D01*
X187197652Y-116055087D01*
X187123557Y-115916467D01*
X187106384Y-115859853D01*
X187072037Y-115746627D01*
X187054641Y-115570000D01*
X187072037Y-115393373D01*
X187123557Y-115223534D01*
X187123557Y-115223533D01*
X187207221Y-115067011D01*
X187207222Y-115067009D01*
X187267139Y-114994000D01*
X187319814Y-114929814D01*
X187438131Y-114832715D01*
X187457009Y-114817222D01*
X187508497Y-114789701D01*
X187613533Y-114733557D01*
X187670147Y-114716384D01*
X187783373Y-114682037D01*
X187849557Y-114675519D01*
X187915740Y-114669000D01*
X188004260Y-114669000D01*
X188070443Y-114675519D01*
X188070443Y-114675519D01*
G37*
G36*
X157817916Y-112462334D02*
X157926492Y-112495271D01*
X158026557Y-112548756D01*
X158114264Y-112620736D01*
X158186244Y-112708443D01*
X158239729Y-112808508D01*
X158272666Y-112917084D01*
X158283787Y-113030000D01*
X158272666Y-113142916D01*
X158239729Y-113251492D01*
X158239726Y-113251497D01*
X158186244Y-113351557D01*
X158114264Y-113439264D01*
X158026557Y-113511244D01*
X157945143Y-113554760D01*
X157924768Y-113568373D01*
X157907441Y-113585701D01*
X157893827Y-113606075D01*
X157884450Y-113628714D01*
X157879669Y-113652747D01*
X157879669Y-113677252D01*
X157884449Y-113701285D01*
X157893827Y-113723924D01*
X157907440Y-113744299D01*
X157924768Y-113761626D01*
X157945143Y-113775240D01*
X158026557Y-113818756D01*
X158114264Y-113890736D01*
X158186244Y-113978443D01*
X158239729Y-114078508D01*
X158272666Y-114187084D01*
X158283787Y-114300000D01*
X158272666Y-114412916D01*
X158239729Y-114521492D01*
X158239726Y-114521497D01*
X158186244Y-114621557D01*
X158114264Y-114709264D01*
X158037365Y-114772374D01*
X158020038Y-114789701D01*
X158006424Y-114810076D01*
X157997046Y-114832715D01*
X157992266Y-114856748D01*
X157992266Y-114881252D01*
X157997047Y-114905286D01*
X158006424Y-114927925D01*
X158020038Y-114948299D01*
X158037365Y-114965626D01*
X158057740Y-114979240D01*
X158080379Y-114988618D01*
X158116664Y-114994000D01*
X158281000Y-114994000D01*
X158281000Y-116146000D01*
X156679000Y-116146000D01*
X156679000Y-114994000D01*
X156843336Y-114994000D01*
X156867722Y-114991598D01*
X156891171Y-114984485D01*
X156912782Y-114972934D01*
X156931724Y-114957388D01*
X156947270Y-114938446D01*
X156958821Y-114916835D01*
X156965934Y-114893386D01*
X156968336Y-114869000D01*
X156965934Y-114844614D01*
X156958821Y-114821165D01*
X156947270Y-114799554D01*
X156922635Y-114772374D01*
X156845736Y-114709264D01*
X156773756Y-114621557D01*
X156720274Y-114521497D01*
X156720271Y-114521492D01*
X156687334Y-114412916D01*
X156676213Y-114300000D01*
X156687334Y-114187084D01*
X156720271Y-114078508D01*
X156773756Y-113978443D01*
X156845736Y-113890736D01*
X156933443Y-113818756D01*
X157014857Y-113775240D01*
X157035232Y-113761627D01*
X157052559Y-113744299D01*
X157066173Y-113723925D01*
X157075550Y-113701286D01*
X157080331Y-113677253D01*
X157080331Y-113652748D01*
X157075551Y-113628715D01*
X157066173Y-113606076D01*
X157052560Y-113585701D01*
X157035232Y-113568374D01*
X157014857Y-113554760D01*
X156933443Y-113511244D01*
X156845736Y-113439264D01*
X156773756Y-113351557D01*
X156720274Y-113251497D01*
X156720271Y-113251492D01*
X156687334Y-113142916D01*
X156676213Y-113030000D01*
X156687334Y-112917084D01*
X156720271Y-112808508D01*
X156773756Y-112708443D01*
X156845736Y-112620736D01*
X156933443Y-112548756D01*
X157033508Y-112495271D01*
X157142084Y-112462334D01*
X157226702Y-112454000D01*
X157733298Y-112454000D01*
X157817916Y-112462334D01*
X157817916Y-112462334D01*
G37*
G36*
X188070443Y-112135519D02*
X188136627Y-112142037D01*
X188249853Y-112176384D01*
X188306467Y-112193557D01*
X188445087Y-112267652D01*
X188462991Y-112277222D01*
X188493769Y-112302481D01*
X188600186Y-112389814D01*
X188683448Y-112491271D01*
X188712778Y-112527009D01*
X188712779Y-112527011D01*
X188796443Y-112683533D01*
X188796443Y-112683534D01*
X188847963Y-112853373D01*
X188865359Y-113030000D01*
X188847963Y-113206627D01*
X188813616Y-113319853D01*
X188796443Y-113376467D01*
X188762877Y-113439264D01*
X188712778Y-113532991D01*
X188686731Y-113564729D01*
X188600186Y-113670186D01*
X188498729Y-113753448D01*
X188462991Y-113782778D01*
X188462989Y-113782779D01*
X188306467Y-113866443D01*
X188249853Y-113883616D01*
X188136627Y-113917963D01*
X188070443Y-113924481D01*
X188004260Y-113931000D01*
X187915740Y-113931000D01*
X187849557Y-113924481D01*
X187783373Y-113917963D01*
X187670147Y-113883616D01*
X187613533Y-113866443D01*
X187457011Y-113782779D01*
X187457009Y-113782778D01*
X187421271Y-113753448D01*
X187319814Y-113670186D01*
X187233269Y-113564729D01*
X187207222Y-113532991D01*
X187157123Y-113439264D01*
X187123557Y-113376467D01*
X187106384Y-113319853D01*
X187072037Y-113206627D01*
X187054641Y-113030000D01*
X187072037Y-112853373D01*
X187123557Y-112683534D01*
X187123557Y-112683533D01*
X187207221Y-112527011D01*
X187207222Y-112527009D01*
X187236552Y-112491271D01*
X187319814Y-112389814D01*
X187426231Y-112302481D01*
X187457009Y-112277222D01*
X187474913Y-112267652D01*
X187613533Y-112193557D01*
X187670147Y-112176384D01*
X187783373Y-112142037D01*
X187849557Y-112135519D01*
X187915740Y-112129000D01*
X188004260Y-112129000D01*
X188070443Y-112135519D01*
X188070443Y-112135519D01*
G37*
G36*
X175370443Y-112135519D02*
X175436627Y-112142037D01*
X175549853Y-112176384D01*
X175606467Y-112193557D01*
X175745087Y-112267652D01*
X175762991Y-112277222D01*
X175793769Y-112302481D01*
X175900186Y-112389814D01*
X175983448Y-112491271D01*
X176012778Y-112527009D01*
X176012779Y-112527011D01*
X176096443Y-112683533D01*
X176096443Y-112683534D01*
X176147963Y-112853373D01*
X176165359Y-113030000D01*
X176147963Y-113206627D01*
X176113616Y-113319853D01*
X176096443Y-113376467D01*
X176062877Y-113439264D01*
X176012778Y-113532991D01*
X175986731Y-113564729D01*
X175900186Y-113670186D01*
X175798729Y-113753448D01*
X175762991Y-113782778D01*
X175762989Y-113782779D01*
X175606467Y-113866443D01*
X175549853Y-113883616D01*
X175436627Y-113917963D01*
X175370443Y-113924481D01*
X175304260Y-113931000D01*
X175215740Y-113931000D01*
X175149557Y-113924481D01*
X175083373Y-113917963D01*
X174970147Y-113883616D01*
X174913533Y-113866443D01*
X174757011Y-113782779D01*
X174757009Y-113782778D01*
X174721271Y-113753448D01*
X174619814Y-113670186D01*
X174533269Y-113564729D01*
X174507222Y-113532991D01*
X174457123Y-113439264D01*
X174423557Y-113376467D01*
X174406384Y-113319853D01*
X174372037Y-113206627D01*
X174354641Y-113030000D01*
X174372037Y-112853373D01*
X174423557Y-112683534D01*
X174423557Y-112683533D01*
X174507221Y-112527011D01*
X174507222Y-112527009D01*
X174536552Y-112491271D01*
X174619814Y-112389814D01*
X174726231Y-112302481D01*
X174757009Y-112277222D01*
X174774913Y-112267652D01*
X174913533Y-112193557D01*
X174970147Y-112176384D01*
X175083373Y-112142037D01*
X175149557Y-112135519D01*
X175215740Y-112129000D01*
X175304260Y-112129000D01*
X175370443Y-112135519D01*
X175370443Y-112135519D01*
G37*
G36*
X181720443Y-112135519D02*
X181786627Y-112142037D01*
X181899853Y-112176384D01*
X181956467Y-112193557D01*
X182095087Y-112267652D01*
X182112991Y-112277222D01*
X182143769Y-112302481D01*
X182250186Y-112389814D01*
X182333448Y-112491271D01*
X182362778Y-112527009D01*
X182362779Y-112527011D01*
X182446443Y-112683533D01*
X182446443Y-112683534D01*
X182497963Y-112853373D01*
X182515359Y-113030000D01*
X182497963Y-113206627D01*
X182463616Y-113319853D01*
X182446443Y-113376467D01*
X182412877Y-113439264D01*
X182362778Y-113532991D01*
X182336731Y-113564729D01*
X182250186Y-113670186D01*
X182148729Y-113753448D01*
X182112991Y-113782778D01*
X182112989Y-113782779D01*
X181956467Y-113866443D01*
X181899853Y-113883616D01*
X181786627Y-113917963D01*
X181720443Y-113924481D01*
X181654260Y-113931000D01*
X181565740Y-113931000D01*
X181499557Y-113924481D01*
X181433373Y-113917963D01*
X181320147Y-113883616D01*
X181263533Y-113866443D01*
X181107011Y-113782779D01*
X181107009Y-113782778D01*
X181071271Y-113753448D01*
X180969814Y-113670186D01*
X180883269Y-113564729D01*
X180857222Y-113532991D01*
X180807123Y-113439264D01*
X180773557Y-113376467D01*
X180756384Y-113319853D01*
X180722037Y-113206627D01*
X180704641Y-113030000D01*
X180722037Y-112853373D01*
X180773557Y-112683534D01*
X180773557Y-112683533D01*
X180857221Y-112527011D01*
X180857222Y-112527009D01*
X180886552Y-112491271D01*
X180969814Y-112389814D01*
X181076231Y-112302481D01*
X181107009Y-112277222D01*
X181124913Y-112267652D01*
X181263533Y-112193557D01*
X181320147Y-112176384D01*
X181433373Y-112142037D01*
X181499557Y-112135519D01*
X181565740Y-112129000D01*
X181654260Y-112129000D01*
X181720443Y-112135519D01*
X181720443Y-112135519D01*
G37*
G36*
X166538228Y-110941703D02*
X166693100Y-111005853D01*
X166832481Y-111098985D01*
X166951015Y-111217519D01*
X167044147Y-111356900D01*
X167108297Y-111511772D01*
X167141000Y-111676184D01*
X167141000Y-111843816D01*
X167108297Y-112008228D01*
X167044147Y-112163100D01*
X166951015Y-112302481D01*
X166832481Y-112421015D01*
X166693100Y-112514147D01*
X166538228Y-112578297D01*
X166373816Y-112611000D01*
X166206184Y-112611000D01*
X166041772Y-112578297D01*
X165886900Y-112514147D01*
X165747519Y-112421015D01*
X165628985Y-112302481D01*
X165535853Y-112163100D01*
X165471703Y-112008228D01*
X165439000Y-111843816D01*
X165439000Y-111676184D01*
X165471703Y-111511772D01*
X165535853Y-111356900D01*
X165628985Y-111217519D01*
X165747519Y-111098985D01*
X165886900Y-111005853D01*
X166041772Y-110941703D01*
X166206184Y-110909000D01*
X166373816Y-110909000D01*
X166538228Y-110941703D01*
X166538228Y-110941703D01*
G37*
G36*
X161538228Y-110941703D02*
X161693100Y-111005853D01*
X161832481Y-111098985D01*
X161951015Y-111217519D01*
X162044147Y-111356900D01*
X162108297Y-111511772D01*
X162141000Y-111676184D01*
X162141000Y-111843816D01*
X162108297Y-112008228D01*
X162044147Y-112163100D01*
X161951015Y-112302481D01*
X161832481Y-112421015D01*
X161693100Y-112514147D01*
X161538228Y-112578297D01*
X161373816Y-112611000D01*
X161206184Y-112611000D01*
X161041772Y-112578297D01*
X160886900Y-112514147D01*
X160747519Y-112421015D01*
X160628985Y-112302481D01*
X160535853Y-112163100D01*
X160471703Y-112008228D01*
X160439000Y-111843816D01*
X160439000Y-111676184D01*
X160471703Y-111511772D01*
X160535853Y-111356900D01*
X160628985Y-111217519D01*
X160747519Y-111098985D01*
X160886900Y-111005853D01*
X161041772Y-110941703D01*
X161206184Y-110909000D01*
X161373816Y-110909000D01*
X161538228Y-110941703D01*
X161538228Y-110941703D01*
G37*
G36*
X176161000Y-111391000D02*
X174359000Y-111391000D01*
X174359000Y-109589000D01*
X176161000Y-109589000D01*
X176161000Y-111391000D01*
X176161000Y-111391000D01*
G37*
G36*
X188861000Y-111391000D02*
X187059000Y-111391000D01*
X187059000Y-109589000D01*
X188861000Y-109589000D01*
X188861000Y-111391000D01*
X188861000Y-111391000D01*
G37*
G36*
X182511000Y-111391000D02*
X180709000Y-111391000D01*
X180709000Y-109589000D01*
X182511000Y-109589000D01*
X182511000Y-111391000D01*
X182511000Y-111391000D01*
G37*
G36*
X165266821Y-107111313D02*
X165266824Y-107111314D01*
X165266825Y-107111314D01*
X165427239Y-107159975D01*
X165427241Y-107159976D01*
X165427244Y-107159977D01*
X165575078Y-107238995D01*
X165704659Y-107345341D01*
X165811005Y-107474922D01*
X165890023Y-107622756D01*
X165938687Y-107783179D01*
X165955117Y-107950000D01*
X165938687Y-108116821D01*
X165890023Y-108277244D01*
X165811005Y-108425078D01*
X165704659Y-108554659D01*
X165575078Y-108661005D01*
X165427244Y-108740023D01*
X165427241Y-108740024D01*
X165427239Y-108740025D01*
X165266825Y-108788686D01*
X165266824Y-108788686D01*
X165266821Y-108788687D01*
X165141804Y-108801000D01*
X165058196Y-108801000D01*
X164933179Y-108788687D01*
X164933176Y-108788686D01*
X164933175Y-108788686D01*
X164772761Y-108740025D01*
X164772759Y-108740024D01*
X164772756Y-108740023D01*
X164624922Y-108661005D01*
X164495341Y-108554659D01*
X164388995Y-108425078D01*
X164309977Y-108277244D01*
X164261313Y-108116821D01*
X164244883Y-107950000D01*
X164261313Y-107783179D01*
X164309977Y-107622756D01*
X164388995Y-107474922D01*
X164495341Y-107345341D01*
X164624922Y-107238995D01*
X164772756Y-107159977D01*
X164772759Y-107159976D01*
X164772761Y-107159975D01*
X164933175Y-107111314D01*
X164933176Y-107111314D01*
X164933179Y-107111313D01*
X165058196Y-107099000D01*
X165141804Y-107099000D01*
X165266821Y-107111313D01*
X165266821Y-107111313D01*
G37*
G36*
X158331000Y-108801000D02*
X156629000Y-108801000D01*
X156629000Y-107099000D01*
X158331000Y-107099000D01*
X158331000Y-108801000D01*
X158331000Y-108801000D01*
G37*
G36*
X170346821Y-107111313D02*
X170346824Y-107111314D01*
X170346825Y-107111314D01*
X170507239Y-107159975D01*
X170507241Y-107159976D01*
X170507244Y-107159977D01*
X170655078Y-107238995D01*
X170784659Y-107345341D01*
X170891005Y-107474922D01*
X170970023Y-107622756D01*
X171018687Y-107783179D01*
X171035117Y-107950000D01*
X171018687Y-108116821D01*
X170970023Y-108277244D01*
X170891005Y-108425078D01*
X170784659Y-108554659D01*
X170655078Y-108661005D01*
X170507244Y-108740023D01*
X170507241Y-108740024D01*
X170507239Y-108740025D01*
X170346825Y-108788686D01*
X170346824Y-108788686D01*
X170346821Y-108788687D01*
X170221804Y-108801000D01*
X170138196Y-108801000D01*
X170013179Y-108788687D01*
X170013176Y-108788686D01*
X170013175Y-108788686D01*
X169852761Y-108740025D01*
X169852759Y-108740024D01*
X169852756Y-108740023D01*
X169704922Y-108661005D01*
X169575341Y-108554659D01*
X169468995Y-108425078D01*
X169389977Y-108277244D01*
X169341313Y-108116821D01*
X169324883Y-107950000D01*
X169341313Y-107783179D01*
X169389977Y-107622756D01*
X169468995Y-107474922D01*
X169575341Y-107345341D01*
X169704922Y-107238995D01*
X169852756Y-107159977D01*
X169852759Y-107159976D01*
X169852761Y-107159975D01*
X170013175Y-107111314D01*
X170013176Y-107111314D01*
X170013179Y-107111313D01*
X170138196Y-107099000D01*
X170221804Y-107099000D01*
X170346821Y-107111313D01*
X170346821Y-107111313D01*
G37*
M02*
