G04 #@! TF.GenerationSoftware,KiCad,Pcbnew,5.0.2+dfsg1-1+build2*
G04 #@! TF.CreationDate,2019-10-24T23:13:18-07:00*
G04 #@! TF.ProjectId,pcb_class,7063625f-636c-4617-9373-2e6b69636164,rev?*
G04 #@! TF.SameCoordinates,Original*
G04 #@! TF.FileFunction,Legend,Top*
G04 #@! TF.FilePolarity,Positive*
%FSLAX46Y46*%
G04 Gerber Fmt 4.6, Leading zero omitted, Abs format (unit mm)*
G04 Created by KiCad (PCBNEW 5.0.2+dfsg1-1+build2) date Thu 24 Oct 2019 11:13:18 PM PDT*
%MOMM*%
%LPD*%
G01*
G04 APERTURE LIST*
%ADD10C,0.300000*%
%ADD11C,0.200000*%
%ADD12C,0.120000*%
%ADD13C,0.150000*%
%ADD14C,0.125000*%
G04 APERTURE END LIST*
D10*
X186817142Y-106572857D02*
X187031428Y-106644285D01*
X187102857Y-106715714D01*
X187174285Y-106858571D01*
X187174285Y-107072857D01*
X187102857Y-107215714D01*
X187031428Y-107287142D01*
X186888571Y-107358571D01*
X186317142Y-107358571D01*
X186317142Y-105858571D01*
X186817142Y-105858571D01*
X186960000Y-105930000D01*
X187031428Y-106001428D01*
X187102857Y-106144285D01*
X187102857Y-106287142D01*
X187031428Y-106430000D01*
X186960000Y-106501428D01*
X186817142Y-106572857D01*
X186317142Y-106572857D01*
X187745714Y-106930000D02*
X188460000Y-106930000D01*
X187602857Y-107358571D02*
X188102857Y-105858571D01*
X188602857Y-107358571D01*
X189817142Y-107358571D02*
X189102857Y-107358571D01*
X189102857Y-105858571D01*
X179538571Y-107358571D02*
X179538571Y-105858571D01*
X179895714Y-105858571D01*
X180110000Y-105930000D01*
X180252857Y-106072857D01*
X180324285Y-106215714D01*
X180395714Y-106501428D01*
X180395714Y-106715714D01*
X180324285Y-107001428D01*
X180252857Y-107144285D01*
X180110000Y-107287142D01*
X179895714Y-107358571D01*
X179538571Y-107358571D01*
X181038571Y-107358571D02*
X181038571Y-105858571D01*
X182610000Y-107358571D02*
X182110000Y-106644285D01*
X181752857Y-107358571D02*
X181752857Y-105858571D01*
X182324285Y-105858571D01*
X182467142Y-105930000D01*
X182538571Y-106001428D01*
X182610000Y-106144285D01*
X182610000Y-106358571D01*
X182538571Y-106501428D01*
X182467142Y-106572857D01*
X182324285Y-106644285D01*
X181752857Y-106644285D01*
X183038571Y-105858571D02*
X183895714Y-105858571D01*
X183467142Y-107358571D02*
X183467142Y-105858571D01*
X173367142Y-105858571D02*
X173867142Y-107358571D01*
X174367142Y-105858571D01*
X175152857Y-105858571D02*
X175438571Y-105858571D01*
X175581428Y-105930000D01*
X175724285Y-106072857D01*
X175795714Y-106358571D01*
X175795714Y-106858571D01*
X175724285Y-107144285D01*
X175581428Y-107287142D01*
X175438571Y-107358571D01*
X175152857Y-107358571D01*
X175010000Y-107287142D01*
X174867142Y-107144285D01*
X174795714Y-106858571D01*
X174795714Y-106358571D01*
X174867142Y-106072857D01*
X175010000Y-105930000D01*
X175152857Y-105858571D01*
X177152857Y-107358571D02*
X176438571Y-107358571D01*
X176438571Y-105858571D01*
D11*
X185000952Y-121011904D02*
X185000952Y-120211904D01*
X185381904Y-121011904D02*
X185381904Y-120211904D01*
X185839047Y-121011904D01*
X185839047Y-120211904D01*
X182384761Y-121011904D02*
X182537142Y-121011904D01*
X182613333Y-120973809D01*
X182651428Y-120935714D01*
X182727619Y-120821428D01*
X182765714Y-120669047D01*
X182765714Y-120364285D01*
X182727619Y-120288095D01*
X182689523Y-120250000D01*
X182613333Y-120211904D01*
X182460952Y-120211904D01*
X182384761Y-120250000D01*
X182346666Y-120288095D01*
X182308571Y-120364285D01*
X182308571Y-120554761D01*
X182346666Y-120630952D01*
X182384761Y-120669047D01*
X182460952Y-120707142D01*
X182613333Y-120707142D01*
X182689523Y-120669047D01*
X182727619Y-120630952D01*
X182765714Y-120554761D01*
X182994285Y-120211904D02*
X183260952Y-121011904D01*
X183527619Y-120211904D01*
X179730476Y-120250000D02*
X179654285Y-120211904D01*
X179540000Y-120211904D01*
X179425714Y-120250000D01*
X179349523Y-120326190D01*
X179311428Y-120402380D01*
X179273333Y-120554761D01*
X179273333Y-120669047D01*
X179311428Y-120821428D01*
X179349523Y-120897619D01*
X179425714Y-120973809D01*
X179540000Y-121011904D01*
X179616190Y-121011904D01*
X179730476Y-120973809D01*
X179768571Y-120935714D01*
X179768571Y-120669047D01*
X179616190Y-120669047D01*
X180111428Y-121011904D02*
X180111428Y-120211904D01*
X180568571Y-121011904D01*
X180568571Y-120211904D01*
X180949523Y-121011904D02*
X180949523Y-120211904D01*
X181140000Y-120211904D01*
X181254285Y-120250000D01*
X181330476Y-120326190D01*
X181368571Y-120402380D01*
X181406666Y-120554761D01*
X181406666Y-120669047D01*
X181368571Y-120821428D01*
X181330476Y-120897619D01*
X181254285Y-120973809D01*
X181140000Y-121011904D01*
X180949523Y-121011904D01*
X177000000Y-120211904D02*
X177152380Y-120211904D01*
X177228571Y-120250000D01*
X177304761Y-120326190D01*
X177342857Y-120478571D01*
X177342857Y-120745238D01*
X177304761Y-120897619D01*
X177228571Y-120973809D01*
X177152380Y-121011904D01*
X177000000Y-121011904D01*
X176923809Y-120973809D01*
X176847619Y-120897619D01*
X176809523Y-120745238D01*
X176809523Y-120478571D01*
X176847619Y-120326190D01*
X176923809Y-120250000D01*
X177000000Y-120211904D01*
X177685714Y-120211904D02*
X177685714Y-120859523D01*
X177723809Y-120935714D01*
X177761904Y-120973809D01*
X177838095Y-121011904D01*
X177990476Y-121011904D01*
X178066666Y-120973809D01*
X178104761Y-120935714D01*
X178142857Y-120859523D01*
X178142857Y-120211904D01*
X178409523Y-120211904D02*
X178866666Y-120211904D01*
X178638095Y-121011904D02*
X178638095Y-120211904D01*
D12*
G04 #@! TO.C,C1*
X167720000Y-114700000D02*
X167720000Y-123940000D01*
X162480000Y-114700000D02*
X162480000Y-123940000D01*
X167720000Y-114700000D02*
X166046000Y-114700000D01*
X164154000Y-114700000D02*
X162480000Y-114700000D01*
X167720000Y-123940000D02*
X166046000Y-123940000D01*
X164154000Y-123940000D02*
X162480000Y-123940000D01*
G04 #@! TO.C,C2*
X160100000Y-121650000D02*
G75*
G03X160100000Y-121650000I-2620000J0D01*
G01*
X156440000Y-121650000D02*
X154900000Y-121650000D01*
X160060000Y-121650000D02*
X158520000Y-121650000D01*
X156440000Y-121690000D02*
X154900000Y-121690000D01*
X160060000Y-121690000D02*
X158520000Y-121690000D01*
X160059000Y-121730000D02*
X158520000Y-121730000D01*
X156440000Y-121730000D02*
X154901000Y-121730000D01*
X160058000Y-121770000D02*
X158520000Y-121770000D01*
X156440000Y-121770000D02*
X154902000Y-121770000D01*
X160056000Y-121810000D02*
X158520000Y-121810000D01*
X156440000Y-121810000D02*
X154904000Y-121810000D01*
X160053000Y-121850000D02*
X158520000Y-121850000D01*
X156440000Y-121850000D02*
X154907000Y-121850000D01*
X160049000Y-121890000D02*
X158520000Y-121890000D01*
X156440000Y-121890000D02*
X154911000Y-121890000D01*
X160045000Y-121930000D02*
X158520000Y-121930000D01*
X156440000Y-121930000D02*
X154915000Y-121930000D01*
X160041000Y-121970000D02*
X158520000Y-121970000D01*
X156440000Y-121970000D02*
X154919000Y-121970000D01*
X160036000Y-122010000D02*
X158520000Y-122010000D01*
X156440000Y-122010000D02*
X154924000Y-122010000D01*
X160030000Y-122050000D02*
X158520000Y-122050000D01*
X156440000Y-122050000D02*
X154930000Y-122050000D01*
X160023000Y-122090000D02*
X158520000Y-122090000D01*
X156440000Y-122090000D02*
X154937000Y-122090000D01*
X160016000Y-122130000D02*
X158520000Y-122130000D01*
X156440000Y-122130000D02*
X154944000Y-122130000D01*
X160008000Y-122170000D02*
X158520000Y-122170000D01*
X156440000Y-122170000D02*
X154952000Y-122170000D01*
X160000000Y-122210000D02*
X158520000Y-122210000D01*
X156440000Y-122210000D02*
X154960000Y-122210000D01*
X159991000Y-122250000D02*
X158520000Y-122250000D01*
X156440000Y-122250000D02*
X154969000Y-122250000D01*
X159981000Y-122290000D02*
X158520000Y-122290000D01*
X156440000Y-122290000D02*
X154979000Y-122290000D01*
X159971000Y-122330000D02*
X158520000Y-122330000D01*
X156440000Y-122330000D02*
X154989000Y-122330000D01*
X159960000Y-122371000D02*
X158520000Y-122371000D01*
X156440000Y-122371000D02*
X155000000Y-122371000D01*
X159948000Y-122411000D02*
X158520000Y-122411000D01*
X156440000Y-122411000D02*
X155012000Y-122411000D01*
X159935000Y-122451000D02*
X158520000Y-122451000D01*
X156440000Y-122451000D02*
X155025000Y-122451000D01*
X159922000Y-122491000D02*
X158520000Y-122491000D01*
X156440000Y-122491000D02*
X155038000Y-122491000D01*
X159908000Y-122531000D02*
X158520000Y-122531000D01*
X156440000Y-122531000D02*
X155052000Y-122531000D01*
X159894000Y-122571000D02*
X158520000Y-122571000D01*
X156440000Y-122571000D02*
X155066000Y-122571000D01*
X159878000Y-122611000D02*
X158520000Y-122611000D01*
X156440000Y-122611000D02*
X155082000Y-122611000D01*
X159862000Y-122651000D02*
X158520000Y-122651000D01*
X156440000Y-122651000D02*
X155098000Y-122651000D01*
X159845000Y-122691000D02*
X158520000Y-122691000D01*
X156440000Y-122691000D02*
X155115000Y-122691000D01*
X159828000Y-122731000D02*
X158520000Y-122731000D01*
X156440000Y-122731000D02*
X155132000Y-122731000D01*
X159809000Y-122771000D02*
X158520000Y-122771000D01*
X156440000Y-122771000D02*
X155151000Y-122771000D01*
X159790000Y-122811000D02*
X158520000Y-122811000D01*
X156440000Y-122811000D02*
X155170000Y-122811000D01*
X159770000Y-122851000D02*
X158520000Y-122851000D01*
X156440000Y-122851000D02*
X155190000Y-122851000D01*
X159748000Y-122891000D02*
X158520000Y-122891000D01*
X156440000Y-122891000D02*
X155212000Y-122891000D01*
X159727000Y-122931000D02*
X158520000Y-122931000D01*
X156440000Y-122931000D02*
X155233000Y-122931000D01*
X159704000Y-122971000D02*
X158520000Y-122971000D01*
X156440000Y-122971000D02*
X155256000Y-122971000D01*
X159680000Y-123011000D02*
X158520000Y-123011000D01*
X156440000Y-123011000D02*
X155280000Y-123011000D01*
X159655000Y-123051000D02*
X158520000Y-123051000D01*
X156440000Y-123051000D02*
X155305000Y-123051000D01*
X159629000Y-123091000D02*
X158520000Y-123091000D01*
X156440000Y-123091000D02*
X155331000Y-123091000D01*
X159602000Y-123131000D02*
X158520000Y-123131000D01*
X156440000Y-123131000D02*
X155358000Y-123131000D01*
X159575000Y-123171000D02*
X158520000Y-123171000D01*
X156440000Y-123171000D02*
X155385000Y-123171000D01*
X159545000Y-123211000D02*
X158520000Y-123211000D01*
X156440000Y-123211000D02*
X155415000Y-123211000D01*
X159515000Y-123251000D02*
X158520000Y-123251000D01*
X156440000Y-123251000D02*
X155445000Y-123251000D01*
X159484000Y-123291000D02*
X158520000Y-123291000D01*
X156440000Y-123291000D02*
X155476000Y-123291000D01*
X159451000Y-123331000D02*
X158520000Y-123331000D01*
X156440000Y-123331000D02*
X155509000Y-123331000D01*
X159417000Y-123371000D02*
X158520000Y-123371000D01*
X156440000Y-123371000D02*
X155543000Y-123371000D01*
X159381000Y-123411000D02*
X158520000Y-123411000D01*
X156440000Y-123411000D02*
X155579000Y-123411000D01*
X159344000Y-123451000D02*
X158520000Y-123451000D01*
X156440000Y-123451000D02*
X155616000Y-123451000D01*
X159306000Y-123491000D02*
X158520000Y-123491000D01*
X156440000Y-123491000D02*
X155654000Y-123491000D01*
X159265000Y-123531000D02*
X158520000Y-123531000D01*
X156440000Y-123531000D02*
X155695000Y-123531000D01*
X159223000Y-123571000D02*
X158520000Y-123571000D01*
X156440000Y-123571000D02*
X155737000Y-123571000D01*
X159179000Y-123611000D02*
X158520000Y-123611000D01*
X156440000Y-123611000D02*
X155781000Y-123611000D01*
X159133000Y-123651000D02*
X158520000Y-123651000D01*
X156440000Y-123651000D02*
X155827000Y-123651000D01*
X159085000Y-123691000D02*
X155875000Y-123691000D01*
X159034000Y-123731000D02*
X155926000Y-123731000D01*
X158980000Y-123771000D02*
X155980000Y-123771000D01*
X158923000Y-123811000D02*
X156037000Y-123811000D01*
X158863000Y-123851000D02*
X156097000Y-123851000D01*
X158799000Y-123891000D02*
X156161000Y-123891000D01*
X158731000Y-123931000D02*
X156229000Y-123931000D01*
X158658000Y-123971000D02*
X156302000Y-123971000D01*
X158578000Y-124011000D02*
X156382000Y-124011000D01*
X158491000Y-124051000D02*
X156469000Y-124051000D01*
X158395000Y-124091000D02*
X156565000Y-124091000D01*
X158285000Y-124131000D02*
X156675000Y-124131000D01*
X158157000Y-124171000D02*
X156803000Y-124171000D01*
X157998000Y-124211000D02*
X156962000Y-124211000D01*
X157764000Y-124251000D02*
X157196000Y-124251000D01*
X158955000Y-118845225D02*
X158955000Y-119345225D01*
X159205000Y-119095225D02*
X158705000Y-119095225D01*
G04 #@! TO.C,C3*
X160070000Y-110390000D02*
X167510000Y-110390000D01*
X160070000Y-113130000D02*
X167510000Y-113130000D01*
X160070000Y-110390000D02*
X160070000Y-113130000D01*
X167510000Y-110390000D02*
X167510000Y-113130000D01*
G04 #@! TO.C,D1*
X159170000Y-106830000D02*
X159170000Y-109070000D01*
X159170000Y-109070000D02*
X163410000Y-109070000D01*
X163410000Y-109070000D02*
X163410000Y-106830000D01*
X163410000Y-106830000D02*
X159170000Y-106830000D01*
X158520000Y-107950000D02*
X159170000Y-107950000D01*
X164060000Y-107950000D02*
X163410000Y-107950000D01*
X159890000Y-106830000D02*
X159890000Y-109070000D01*
X160010000Y-106830000D02*
X160010000Y-109070000D01*
X159770000Y-106830000D02*
X159770000Y-109070000D01*
G04 #@! TO.C,J1*
X184150000Y-121860000D02*
X184150000Y-124520000D01*
X184150000Y-121860000D02*
X176470000Y-121860000D01*
X176470000Y-121860000D02*
X176470000Y-124520000D01*
X184150000Y-124520000D02*
X176470000Y-124520000D01*
X186750000Y-124520000D02*
X185420000Y-124520000D01*
X186750000Y-123190000D02*
X186750000Y-124520000D01*
G04 #@! TO.C,Q1*
X159330000Y-116100000D02*
X159330000Y-112500000D01*
X159318478Y-116138478D02*
G75*
G02X154880000Y-114300000I-1838478J1838478D01*
G01*
X159318478Y-112461522D02*
G75*
G03X154880000Y-114300000I-1838478J-1838478D01*
G01*
G04 #@! TO.C,R1*
X168810000Y-116300000D02*
X171550000Y-116300000D01*
X171550000Y-116300000D02*
X171550000Y-109760000D01*
X171550000Y-109760000D02*
X168810000Y-109760000D01*
X168810000Y-109760000D02*
X168810000Y-116300000D01*
X170180000Y-117070000D02*
X170180000Y-116300000D01*
X170180000Y-108990000D02*
X170180000Y-109760000D01*
G04 #@! TO.C,RV1*
X187960000Y-109160000D02*
X189290000Y-109160000D01*
X189290000Y-109160000D02*
X189290000Y-110490000D01*
X189290000Y-111760000D02*
X189290000Y-116900000D01*
X186630000Y-116900000D02*
X189290000Y-116900000D01*
X186630000Y-111760000D02*
X186630000Y-116900000D01*
X186630000Y-111760000D02*
X189290000Y-111760000D01*
G04 #@! TO.C,RV2*
X180280000Y-111760000D02*
X182940000Y-111760000D01*
X180280000Y-111760000D02*
X180280000Y-116900000D01*
X180280000Y-116900000D02*
X182940000Y-116900000D01*
X182940000Y-111760000D02*
X182940000Y-116900000D01*
X182940000Y-109160000D02*
X182940000Y-110490000D01*
X181610000Y-109160000D02*
X182940000Y-109160000D01*
G04 #@! TO.C,RV3*
X173930000Y-111760000D02*
X176590000Y-111760000D01*
X173930000Y-111760000D02*
X173930000Y-116900000D01*
X173930000Y-116900000D02*
X176590000Y-116900000D01*
X176590000Y-111760000D02*
X176590000Y-116900000D01*
X176590000Y-109160000D02*
X176590000Y-110490000D01*
X175260000Y-109160000D02*
X176590000Y-109160000D01*
G04 #@! TO.C,C1*
D13*
X165552380Y-119915238D02*
X165552380Y-120486666D01*
X165552380Y-120200952D02*
X164552380Y-120200952D01*
X164695238Y-120296190D01*
X164790476Y-120391428D01*
X164838095Y-120486666D01*
X164885714Y-119486666D02*
X165552380Y-119486666D01*
X164980952Y-119486666D02*
X164933333Y-119439047D01*
X164885714Y-119343809D01*
X164885714Y-119200952D01*
X164933333Y-119105714D01*
X165028571Y-119058095D01*
X165552380Y-119058095D01*
X165028571Y-118248571D02*
X165028571Y-118581904D01*
X165552380Y-118581904D02*
X164552380Y-118581904D01*
X164552380Y-118105714D01*
G04 #@! TO.C,C2*
X153277619Y-123530952D02*
X153230000Y-123483333D01*
X153182380Y-123388095D01*
X153182380Y-123150000D01*
X153230000Y-123054761D01*
X153277619Y-123007142D01*
X153372857Y-122959523D01*
X153468095Y-122959523D01*
X153610952Y-123007142D01*
X154182380Y-123578571D01*
X154182380Y-122959523D01*
X154087142Y-122530952D02*
X154134761Y-122483333D01*
X154182380Y-122530952D01*
X154134761Y-122578571D01*
X154087142Y-122530952D01*
X154182380Y-122530952D01*
X153277619Y-122102380D02*
X153230000Y-122054761D01*
X153182380Y-121959523D01*
X153182380Y-121721428D01*
X153230000Y-121626190D01*
X153277619Y-121578571D01*
X153372857Y-121530952D01*
X153468095Y-121530952D01*
X153610952Y-121578571D01*
X154182380Y-122150000D01*
X154182380Y-121530952D01*
X153515714Y-120673809D02*
X154182380Y-120673809D01*
X153515714Y-121102380D02*
X154039523Y-121102380D01*
X154134761Y-121054761D01*
X154182380Y-120959523D01*
X154182380Y-120816666D01*
X154134761Y-120721428D01*
X154087142Y-120673809D01*
X153658571Y-119864285D02*
X153658571Y-120197619D01*
X154182380Y-120197619D02*
X153182380Y-120197619D01*
X153182380Y-119721428D01*
G04 #@! TO.C,C3*
X162472857Y-112117142D02*
X162520476Y-112164761D01*
X162472857Y-112212380D01*
X162425238Y-112164761D01*
X162472857Y-112117142D01*
X162472857Y-112212380D01*
X163472857Y-112212380D02*
X162901428Y-112212380D01*
X163187142Y-112212380D02*
X163187142Y-111212380D01*
X163091904Y-111355238D01*
X162996666Y-111450476D01*
X162901428Y-111498095D01*
X164330000Y-111545714D02*
X164330000Y-112212380D01*
X163901428Y-111545714D02*
X163901428Y-112069523D01*
X163949047Y-112164761D01*
X164044285Y-112212380D01*
X164187142Y-112212380D01*
X164282380Y-112164761D01*
X164330000Y-112117142D01*
X165139523Y-111688571D02*
X164806190Y-111688571D01*
X164806190Y-112212380D02*
X164806190Y-111212380D01*
X165282380Y-111212380D01*
G04 #@! TO.C,D1*
D14*
X160608571Y-108221428D02*
X160322857Y-108221428D01*
X160465714Y-108221428D02*
X160465714Y-107621428D01*
X160418095Y-107707142D01*
X160370476Y-107764285D01*
X160322857Y-107792857D01*
X160822857Y-108221428D02*
X160822857Y-107621428D01*
X161108571Y-108221428D01*
X161108571Y-107621428D01*
X161560952Y-107821428D02*
X161560952Y-108221428D01*
X161441904Y-107592857D02*
X161322857Y-108021428D01*
X161632380Y-108021428D01*
X162084761Y-108221428D02*
X161799047Y-108221428D01*
X161941904Y-108221428D02*
X161941904Y-107621428D01*
X161894285Y-107707142D01*
X161846666Y-107764285D01*
X161799047Y-107792857D01*
X162513333Y-107821428D02*
X162513333Y-108221428D01*
X162394285Y-107592857D02*
X162275238Y-108021428D01*
X162584761Y-108021428D01*
X162846666Y-107878571D02*
X162799047Y-107850000D01*
X162775238Y-107821428D01*
X162751428Y-107764285D01*
X162751428Y-107735714D01*
X162775238Y-107678571D01*
X162799047Y-107650000D01*
X162846666Y-107621428D01*
X162941904Y-107621428D01*
X162989523Y-107650000D01*
X163013333Y-107678571D01*
X163037142Y-107735714D01*
X163037142Y-107764285D01*
X163013333Y-107821428D01*
X162989523Y-107850000D01*
X162941904Y-107878571D01*
X162846666Y-107878571D01*
X162799047Y-107907142D01*
X162775238Y-107935714D01*
X162751428Y-107992857D01*
X162751428Y-108107142D01*
X162775238Y-108164285D01*
X162799047Y-108192857D01*
X162846666Y-108221428D01*
X162941904Y-108221428D01*
X162989523Y-108192857D01*
X163013333Y-108164285D01*
X163037142Y-108107142D01*
X163037142Y-107992857D01*
X163013333Y-107935714D01*
X162989523Y-107907142D01*
X162941904Y-107878571D01*
G04 #@! TO.C,Q1*
D13*
X154122380Y-116490476D02*
X153122380Y-116490476D01*
X154122380Y-115919047D02*
X153550952Y-116347619D01*
X153122380Y-115919047D02*
X153693809Y-116490476D01*
X154074761Y-115538095D02*
X154122380Y-115395238D01*
X154122380Y-115157142D01*
X154074761Y-115061904D01*
X154027142Y-115014285D01*
X153931904Y-114966666D01*
X153836666Y-114966666D01*
X153741428Y-115014285D01*
X153693809Y-115061904D01*
X153646190Y-115157142D01*
X153598571Y-115347619D01*
X153550952Y-115442857D01*
X153503333Y-115490476D01*
X153408095Y-115538095D01*
X153312857Y-115538095D01*
X153217619Y-115490476D01*
X153170000Y-115442857D01*
X153122380Y-115347619D01*
X153122380Y-115109523D01*
X153170000Y-114966666D01*
X154122380Y-114538095D02*
X153122380Y-114538095D01*
X153122380Y-114157142D01*
X153170000Y-114061904D01*
X153217619Y-114014285D01*
X153312857Y-113966666D01*
X153455714Y-113966666D01*
X153550952Y-114014285D01*
X153598571Y-114061904D01*
X153646190Y-114157142D01*
X153646190Y-114538095D01*
X154122380Y-113014285D02*
X154122380Y-113585714D01*
X154122380Y-113300000D02*
X153122380Y-113300000D01*
X153265238Y-113395238D01*
X153360476Y-113490476D01*
X153408095Y-113585714D01*
X153122380Y-112680952D02*
X153122380Y-112061904D01*
X153503333Y-112395238D01*
X153503333Y-112252380D01*
X153550952Y-112157142D01*
X153598571Y-112109523D01*
X153693809Y-112061904D01*
X153931904Y-112061904D01*
X154027142Y-112109523D01*
X154074761Y-112157142D01*
X154122380Y-112252380D01*
X154122380Y-112538095D01*
X154074761Y-112633333D01*
X154027142Y-112680952D01*
G04 #@! TO.C,R1*
X170632380Y-113720476D02*
X170632380Y-114291904D01*
X170632380Y-114006190D02*
X169632380Y-114006190D01*
X169775238Y-114101428D01*
X169870476Y-114196666D01*
X169918095Y-114291904D01*
X169632380Y-113101428D02*
X169632380Y-113006190D01*
X169680000Y-112910952D01*
X169727619Y-112863333D01*
X169822857Y-112815714D01*
X170013333Y-112768095D01*
X170251428Y-112768095D01*
X170441904Y-112815714D01*
X170537142Y-112863333D01*
X170584761Y-112910952D01*
X170632380Y-113006190D01*
X170632380Y-113101428D01*
X170584761Y-113196666D01*
X170537142Y-113244285D01*
X170441904Y-113291904D01*
X170251428Y-113339523D01*
X170013333Y-113339523D01*
X169822857Y-113291904D01*
X169727619Y-113244285D01*
X169680000Y-113196666D01*
X169632380Y-113101428D01*
X170632380Y-112339523D02*
X169632380Y-112339523D01*
X170632380Y-111768095D02*
X170060952Y-112196666D01*
X169632380Y-111768095D02*
X170203809Y-112339523D01*
G04 #@! TO.C,RV1*
X186102857Y-118268571D02*
X186245714Y-118316190D01*
X186293333Y-118363809D01*
X186340952Y-118459047D01*
X186340952Y-118601904D01*
X186293333Y-118697142D01*
X186245714Y-118744761D01*
X186150476Y-118792380D01*
X185769523Y-118792380D01*
X185769523Y-117792380D01*
X186102857Y-117792380D01*
X186198095Y-117840000D01*
X186245714Y-117887619D01*
X186293333Y-117982857D01*
X186293333Y-118078095D01*
X186245714Y-118173333D01*
X186198095Y-118220952D01*
X186102857Y-118268571D01*
X185769523Y-118268571D01*
X187293333Y-118792380D02*
X186721904Y-118792380D01*
X187007619Y-118792380D02*
X187007619Y-117792380D01*
X186912380Y-117935238D01*
X186817142Y-118030476D01*
X186721904Y-118078095D01*
X187912380Y-117792380D02*
X188007619Y-117792380D01*
X188102857Y-117840000D01*
X188150476Y-117887619D01*
X188198095Y-117982857D01*
X188245714Y-118173333D01*
X188245714Y-118411428D01*
X188198095Y-118601904D01*
X188150476Y-118697142D01*
X188102857Y-118744761D01*
X188007619Y-118792380D01*
X187912380Y-118792380D01*
X187817142Y-118744761D01*
X187769523Y-118697142D01*
X187721904Y-118601904D01*
X187674285Y-118411428D01*
X187674285Y-118173333D01*
X187721904Y-117982857D01*
X187769523Y-117887619D01*
X187817142Y-117840000D01*
X187912380Y-117792380D01*
X188864761Y-117792380D02*
X188960000Y-117792380D01*
X189055238Y-117840000D01*
X189102857Y-117887619D01*
X189150476Y-117982857D01*
X189198095Y-118173333D01*
X189198095Y-118411428D01*
X189150476Y-118601904D01*
X189102857Y-118697142D01*
X189055238Y-118744761D01*
X188960000Y-118792380D01*
X188864761Y-118792380D01*
X188769523Y-118744761D01*
X188721904Y-118697142D01*
X188674285Y-118601904D01*
X188626666Y-118411428D01*
X188626666Y-118173333D01*
X188674285Y-117982857D01*
X188721904Y-117887619D01*
X188769523Y-117840000D01*
X188864761Y-117792380D01*
X189626666Y-118792380D02*
X189626666Y-117792380D01*
X190198095Y-118792380D02*
X189769523Y-118220952D01*
X190198095Y-117792380D02*
X189626666Y-118363809D01*
G04 #@! TO.C,RV2*
X180705238Y-118268571D02*
X180848095Y-118316190D01*
X180895714Y-118363809D01*
X180943333Y-118459047D01*
X180943333Y-118601904D01*
X180895714Y-118697142D01*
X180848095Y-118744761D01*
X180752857Y-118792380D01*
X180371904Y-118792380D01*
X180371904Y-117792380D01*
X180705238Y-117792380D01*
X180800476Y-117840000D01*
X180848095Y-117887619D01*
X180895714Y-117982857D01*
X180895714Y-118078095D01*
X180848095Y-118173333D01*
X180800476Y-118220952D01*
X180705238Y-118268571D01*
X180371904Y-118268571D01*
X181895714Y-118792380D02*
X181324285Y-118792380D01*
X181610000Y-118792380D02*
X181610000Y-117792380D01*
X181514761Y-117935238D01*
X181419523Y-118030476D01*
X181324285Y-118078095D01*
X182324285Y-118792380D02*
X182324285Y-117792380D01*
X182895714Y-118792380D02*
X182467142Y-118220952D01*
X182895714Y-117792380D02*
X182324285Y-118363809D01*
G04 #@! TO.C,RV3*
X173093333Y-118506666D02*
X173569523Y-118506666D01*
X172998095Y-118792380D02*
X173331428Y-117792380D01*
X173664761Y-118792380D01*
X174521904Y-118792380D02*
X173950476Y-118792380D01*
X174236190Y-118792380D02*
X174236190Y-117792380D01*
X174140952Y-117935238D01*
X174045714Y-118030476D01*
X173950476Y-118078095D01*
X175140952Y-117792380D02*
X175236190Y-117792380D01*
X175331428Y-117840000D01*
X175379047Y-117887619D01*
X175426666Y-117982857D01*
X175474285Y-118173333D01*
X175474285Y-118411428D01*
X175426666Y-118601904D01*
X175379047Y-118697142D01*
X175331428Y-118744761D01*
X175236190Y-118792380D01*
X175140952Y-118792380D01*
X175045714Y-118744761D01*
X174998095Y-118697142D01*
X174950476Y-118601904D01*
X174902857Y-118411428D01*
X174902857Y-118173333D01*
X174950476Y-117982857D01*
X174998095Y-117887619D01*
X175045714Y-117840000D01*
X175140952Y-117792380D01*
X176093333Y-117792380D02*
X176188571Y-117792380D01*
X176283809Y-117840000D01*
X176331428Y-117887619D01*
X176379047Y-117982857D01*
X176426666Y-118173333D01*
X176426666Y-118411428D01*
X176379047Y-118601904D01*
X176331428Y-118697142D01*
X176283809Y-118744761D01*
X176188571Y-118792380D01*
X176093333Y-118792380D01*
X175998095Y-118744761D01*
X175950476Y-118697142D01*
X175902857Y-118601904D01*
X175855238Y-118411428D01*
X175855238Y-118173333D01*
X175902857Y-117982857D01*
X175950476Y-117887619D01*
X175998095Y-117840000D01*
X176093333Y-117792380D01*
X176855238Y-118792380D02*
X176855238Y-117792380D01*
X177426666Y-118792380D02*
X176998095Y-118220952D01*
X177426666Y-117792380D02*
X176855238Y-118363809D01*
G04 #@! TD*
M02*
