M48
;DRILL file {KiCad 5.0.2+dfsg1-1+build2} date Thu 24 Oct 2019 11:11:43 PM PDT
;FORMAT={-:-/ absolute / inch / decimal}
FMAT,2
INCH,TZ
T1C0.0157
T2C0.0295
T3C0.0315
T4C0.0394
%
G90
G05
T1
X7.05Y-4.6
X7.1Y-4.7
X7.25Y-4.6
T2
X6.2Y-4.45
X6.2Y-4.5
X6.2Y-4.55
T3
X6.35Y-4.4
X6.5469Y-4.4
X6.2Y-4.75
X6.2Y-4.8287
X6.7Y-4.25
X6.7Y-4.65
X6.2Y-4.25
X6.5Y-4.25
T4
X7.15Y-4.35
X7.15Y-4.45
X7.15Y-4.55
X7.4Y-4.35
X7.4Y-4.45
X7.4Y-4.55
X6.9Y-4.35
X6.9Y-4.45
X6.9Y-4.55
X6.5Y-4.55
X6.5Y-4.8453
X7.Y-4.85
X7.1Y-4.85
X7.2Y-4.85
X7.3Y-4.85
T0
M30
